<?xml version="1.0" encoding="utf-8"?>
<!-- Generator: Adobe Illustrator 17.0.0, SVG Export Plug-In . SVG Version: 6.00 Build 0)  -->
<!DOCTYPE svg PUBLIC "-//W3C//DTD SVG 1.1//EN" "http://www.w3.org/Graphics/SVG/1.1/DTD/svg11.dtd">
<svg version="1.1" id="圖層_1" xmlns="http://www.w3.org/2000/svg" xmlns:xlink="http://www.w3.org/1999/xlink" x="0px" y="0px"
	 width="300px" height="138.33px" viewBox="0 0 300 138.33" enable-background="new 0 0 300 138.33" xml:space="preserve">
<g>
	<path fill="#003465" d="M300,102.602v-4.324h-12.45c-2.378,0-4.306,1.922-4.319,4.297l-0.003,0.027l0.003-0.003v29.803
		c0,1.192-0.333,1.602-1.487,1.602h-1.783v4.324h2.937c4.657,0,4.657-3.83,4.657-5.272h-0.003v-20.422h6.085v25.632h4.325v-25.632
		H300v-4.322h-12.447v-3.761c0-1.229,0.652-1.951,1.729-1.951H300z"/>
	<path fill="#003465" d="M269.501,102.601h10.718v-4.322h-12.447c-2.378,0-4.308,1.922-4.322,4.295l-0.003,0.027l0.003-0.003v29.803
		c0,1.192-0.333,1.605-1.484,1.605h-1.785v4.322h2.937c4.657,0,4.657-3.828,4.657-5.272l-0.003,0.003l0.003-0.003v-9.47h11.878
		v-15.273h-11.878v-3.758C267.775,103.323,268.424,102.601,269.501,102.601 M275.355,119.262h-7.58v-6.627h7.58V119.262z"/>
	<polygon fill="#003465" points="156.074,101.676 153.626,96.949 149.32,96.949 151.758,101.676 133.776,101.676 133.776,105.979 
		174.136,105.979 174.136,101.676 	"/>
	<path fill="#003465" d="M169.096,118.488h5.041v-4.212h-3.326c-1.068,0-2.059-0.507-4.609-3.055l-2.728-2.786h-5.929l5.189,5.232
		l-8.777,7.674l-8.78-7.674l5.189-5.232h-5.927l-2.73,2.786c-2.548,2.547-3.541,3.055-4.609,3.055h-3.326v4.212h5.041
		c0.819,0,1.6-0.306,3.063-1.592l8.608,7.478l-8.992,7.862c-1.398,1.203-2.553,1.769-5.32,1.769h-2.397v4.324
		c-0.072,0,3.825-0.003,3.825-0.003c2.915,0,3.661-0.091,5.862-1.823l10.493-9.116l10.49,9.116c2.201,1.731,2.947,1.823,5.862,1.823
		c0,0,3.9,0.003,3.825,0.003v-4.324h-2.397c-2.767,0-3.922-0.566-5.32-1.769l-8.992-7.862l8.608-7.478
		C167.496,118.182,168.277,118.488,169.096,118.488"/>
	<polygon fill="#003465" points="214.611,14.56 214.611,0 177.316,0 172.173,0 162.746,0 162.746,73.39 172.173,73.39 
		214.611,73.39 214.611,58.809 177.316,58.809 177.316,43.864 212.764,43.864 212.764,29.291 177.316,29.291 177.316,14.56 	"/>
	<polygon fill="#003465" points="50.123,0 50.123,29.411 14.57,29.411 14.57,0 0,0 0,73.39 14.57,73.39 14.57,43.979 50.123,43.979 
		50.123,73.39 64.693,73.39 64.693,0 	"/>
	<path fill="#003465" d="M149.88,73.381l-27.175-40.801c1.2-1.039,2.891-2.51,3.876-3.393c12.844-11.54,14.122-24.985,14.194-29.162
		h-14.071c-0.043,1.984-0.515,10.903-9.376,18.862c-4.171,3.747-10.987,9.462-16.473,14.009V0.263H86.338v73.127h14.517V50.64
		l0.088,0.11c0.381-0.311,5.377-4.383,11.172-9.207l20.921,31.838H149.88z"/>
	<path fill="#E72742" d="M234.858-0.041v14.557c12.197,0.03,22.075,9.924,22.075,22.126c0,12.203-9.878,22.094-22.075,22.124v14.541
		c20.255,0,36.675-16.42,36.675-36.672C271.532,16.378,255.113-0.041,234.858-0.041"/>
	<path fill="#003465" d="M300-0.041v14.557c-12.197,0.03-22.076,9.924-22.076,22.126c0,12.203,9.878,22.094,22.076,22.124v14.541
		c-20.255,0-36.675-16.42-36.675-36.672C263.325,16.378,279.744-0.041,300-0.041"/>
	<path fill="#003465" d="M237.077,117.364v-13.81c0-1.441-0.145-5.272-4.802-5.272h-30.853v19.082h6.405
		c-0.14,0.239-2.145,3.61-2.287,3.825c-1.192,1.774-1.476,2.196-3.64,2.196h-3.739v4.3h3.739c3.251,0,4.848-1.052,6.166-2.668h2.572
		c-0.652,1.227-3.769,6.595-3.916,6.81c-1.192,1.774-1.474,2.196-3.637,2.196h-3.739v4.3h3.739c4.134,0,5.594-1.699,7.207-4.096
		c0.247-0.37,5.116-9.041,5.205-9.21h8.039c-0.65,1.227-3.769,6.595-3.914,6.81c-1.195,1.774-1.476,2.196-3.64,2.196h-3.739v4.3
		h3.739c4.134,0,5.594-1.699,7.207-4.096c0.247-0.37,5.116-9.035,5.205-9.21h4.359v6.866c0,1.423-0.636,2.137-2.174,2.137h-3.224
		v4.308h5.065c4.657,0,4.657-3.828,4.657-5.272v-12.353H210.85c0.47-0.811,1.447-2.496,1.917-3.339H237.077z M205.728,102.606H230.7
		c1.527,0,2.075,0.741,2.075,1.807v1.613h-27.047V102.606z M205.728,109.738h27.047v3.406h-27.047V109.738z"/>
	<path fill="#003465" d="M74.523,133.057v-11.87h-4.325v11.617c0,0.953-0.609,1.203-1.476,1.203h-1.793v4.322h2.939
		c4.657,0,4.657-3.83,4.657-5.272H74.523z"/>
	<polygon fill="#003465" points="67.331,108.961 69.776,115.507 70.217,116.689 74.533,116.689 71.639,108.961 	"/>
	<polygon fill="#003465" points="67.331,98.788 69.776,105.335 70.217,106.516 74.533,106.516 71.639,98.788 	"/>
	<path fill="#003465" d="M97.082,130.202c1.224,0,4.15-0.011,5.02-2.843c0.005-0.016,0.011-0.032,0.016-0.051
		c0.038-0.126,0.07-0.258,0.099-0.395c0.032-0.148,0.059-0.303,0.081-0.464c0.005-0.038,0.011-0.075,0.016-0.113
		c0.032-0.271,0.056-0.556,0.056-0.867v-4.762c0.824,0.33,1.656,0.478,2.582,0.478h2.907v-4.499c0,0-3.079,0-3.168-0.005
		c-0.625-0.035-1.425-0.311-3.46-2.483l-0.55-0.62h5.557v-4.324h-5.377v-3.275h5.377v-4.303h-5.377v-4.727h-4.324v4.727h-9.478
		v-4.727h-4.134v4.727h-5.39v4.303h5.39v3.275h-5.39v4.324h5.556l-0.548,0.62c-2.327,2.483-3.038,2.488-3.723,2.488h-2.904v4.499
		h2.904c0.717,0,1.377-0.094,2.021-0.285v12.157c0,1.441,0,5.272,4.657,5.272h15.467c1.444,0,5.272,0,5.272-4.657v-3.162h-4.322
		v1.911c0,1.076-0.561,1.584-1.6,1.584H86.021c-0.236,0-0.857,0-0.857-0.762v-3.041H97.082z M98.033,124.294
		c0,1.076-0.561,1.586-1.597,1.586H85.164v-3.361h12.868V124.294z M87.059,105.979h9.478v3.275h-9.465h-0.013V105.979z
		 M89.247,113.578l5.282-0.013c0.408,0.44,3.962,4.271,4.373,4.665h-14.03C85.283,117.835,88.839,114.018,89.247,113.578"/>
	<path fill="#003465" d="M36.562,114.023c-0.999,0-1.833-0.148-4.271-2.112c-0.395-0.317-0.875-0.703-1.398-1.127h9.408v-4.308
		H22.303v-3.122l13.231-2.062v-4.327l-14.991,2.335c-0.038,0.005-3.841,0.577-7.433,0.577H4.694v4.276h8.415
		c1.726,0,3.465-0.118,4.888-0.25v2.572H0v4.308h9.408c-0.524,0.424-1.004,0.811-1.398,1.127c-2.438,1.965-3.272,2.112-4.271,2.112
		H0v4.499h3.739c2.421,0,4.209-0.784,7.095-3.108c1.449-1.168,4.048-3.267,5.734-4.63h1.431v9.016H4.694v13.303
		c0,1.441,0,5.226,4.657,5.226H35.56v-18.529H22.303v-9.016h1.433c1.683,1.364,4.282,3.463,5.731,4.63
		c2.883,2.325,4.674,3.108,7.095,3.108h3.739v-4.499H36.562z M31.309,134.007H10.476c-1.05,0-1.457-0.625-1.457-1.817v-1.235h22.29
		V134.007z M31.309,127.242H9.016v-3.092h22.293V127.242z"/>
</g>
</svg>
