<?xml version="1.0" encoding="UTF-8" standalone="no"?>
<svg
   xmlns:dc="http://purl.org/dc/elements/1.1/"
   xmlns:cc="http://creativecommons.org/ns#"
   xmlns:rdf="http://www.w3.org/1999/02/22-rdf-syntax-ns#"
   xmlns:svg="http://www.w3.org/2000/svg"
   xmlns="http://www.w3.org/2000/svg"
   version="1.1"
   id="svg3562"
   viewBox="0 0 292.44705 83.624921"
   height="23.600811mm"
   width="82.535057mm">
  <defs
     id="defs3564">
    <clipPath
       id="clipPath150"
       clipPathUnits="userSpaceOnUse">
      <path
         id="path152"
         d="m 419.76,41.945 149.537,0 0,35.935 -149.537,0 0,-35.935 z" />
    </clipPath>
    <clipPath
       id="clipPath62"
       clipPathUnits="userSpaceOnUse">
      <path
         id="path64"
         d="m 451.975,77.88 -9.376,-25.759 c -0.25,-0.691 -0.913,-1.185 -1.691,-1.185 l 0,0 9.88,0 c 0.777,0 1.44,0.494 1.691,1.185 l 0,0 9.375,25.759 -9.879,0 z" />
    </clipPath>
    <linearGradient
       id="linearGradient70"
       spreadMethod="pad"
       gradientTransform="matrix(9.8078926,26.944725,26.944725,-1.2e-6,446.47779,50.935662)"
       gradientUnits="userSpaceOnUse"
       y2="0"
       x2="1"
       y1="0"
       x1="0">
      <stop
         id="stop72"
         offset="0"
         style="stop-opacity:1;stop-color:#a7a9ac" />
      <stop
         id="stop74"
         offset="0.190184"
         style="stop-opacity:1;stop-color:#dedfe0" />
      <stop
         id="stop76"
         offset="0.361963"
         style="stop-opacity:1;stop-color:#808285" />
      <stop
         id="stop78"
         offset="0.570552"
         style="stop-opacity:1;stop-color:#f3f4f4" />
      <stop
         id="stop80"
         offset="1"
         style="stop-opacity:1;stop-color:#babcbe" />
    </linearGradient>
    <clipPath
       id="clipPath88"
       clipPathUnits="userSpaceOnUse">
      <path
         id="path90"
         d="m 419.76,41.945 149.537,0 0,35.935 -149.537,0 0,-35.935 z" />
    </clipPath>
    <linearGradient
       id="linearGradient108"
       spreadMethod="pad"
       gradientTransform="matrix(-9.8072661,-26.942969,-26.942969,1.2e-6,436.15682,68.887824)"
       gradientUnits="userSpaceOnUse"
       y2="0"
       x2="1"
       y1="0"
       x1="0">
      <stop
         id="stop110"
         offset="0"
         style="stop-opacity:1;stop-color:#babcbe" />
      <stop
         id="stop112"
         offset="0.141104"
         style="stop-opacity:1;stop-color:#f3f4f4" />
      <stop
         id="stop114"
         offset="0.300613"
         style="stop-opacity:1;stop-color:#808285" />
      <stop
         id="stop116"
         offset="0.472393"
         style="stop-opacity:1;stop-color:#dedfe0" />
      <stop
         id="stop118"
         offset="1"
         style="stop-opacity:1;stop-color:#a7a9ac" />
    </linearGradient>
    <linearGradient
       id="linearGradient134"
       spreadMethod="pad"
       gradientTransform="matrix(-8e-7,-17.952544,-17.952544,8e-7,441.31725,68.887824)"
       gradientUnits="userSpaceOnUse"
       y2="0"
       x2="1"
       y1="0"
       x1="0">
      <stop
         id="stop136"
         offset="0"
         style="stop-opacity:1;stop-color:#009fc2" />
      <stop
         id="stop138"
         offset="0.325153"
         style="stop-opacity:1;stop-color:#009fc2" />
      <stop
         id="stop140"
         offset="0.93865"
         style="stop-opacity:1;stop-color:#a7d8e5" />
      <stop
         id="stop142"
         offset="1"
         style="stop-opacity:1;stop-color:#a7d8e5" />
    </linearGradient>
    <clipPath
       id="clipPath150-5"
       clipPathUnits="userSpaceOnUse">
      <path
         id="path152-2"
         d="m 419.76,41.945 149.537,0 0,35.935 -149.537,0 0,-35.935 z" />
    </clipPath>
  </defs>
  <metadata
     id="metadata3567">
    <rdf:RDF>
      <cc:Work
         rdf:about="">
        <dc:format>image/svg+xml</dc:format>
        <dc:type
           rdf:resource="http://purl.org/dc/dcmitype/StillImage" />
        <dc:title></dc:title>
      </cc:Work>
    </rdf:RDF>
  </metadata>
  <g
     transform="translate(-132.57856,-470.9681)"
     id="layer1">
    <g
       id="g3618"
       transform="matrix(2.3271162,0,0,-2.3271162,-846.50788,652.20391)">
      <g
         id="g58">
        <g
           id="g60"
           clip-path="url(#clipPath62)">
          <g
             id="g66">
            <g
               id="g68">
              <path
                 d="m 451.975,77.88 -9.376,-25.759 c -0.25,-0.691 -0.913,-1.185 -1.691,-1.185 l 0,0 9.88,0 c 0.777,0 1.44,0.494 1.691,1.185 l 0,0 9.375,25.759 -9.879,0 z"
                 style="fill:url(#linearGradient70);stroke:none"
                 id="path82" />
            </g>
          </g>
        </g>
      </g>
      <g
         id="g84">
        <g
           id="g86"
           clip-path="url(#clipPath88)">
          <g
             id="g92"
             transform="translate(452.5559,52.1648)">
            <path
               d="m 0,0 9.357,25.715 -0.114,0 -9.344,-25.678 c -0.249,-0.688 -0.908,-1.263 -1.64,-1.263 l 0,-0.003 c 0.777,0 1.477,0.5 1.741,1.229"
               style="fill:#939598;fill-opacity:1;fill-rule:nonzero;stroke:none"
               id="path94" />
          </g>
        </g>
      </g>
      <g
         id="g96">
        <g
           id="g98">
          <g
             id="g104">
            <g
               id="g106">
              <path
                 d="m 431.847,68.888 c -0.778,0 -1.441,-0.493 -1.691,-1.185 l 0,0 -9.375,-25.758 9.879,0 9.375,25.758 c 0.25,0.692 0.914,1.185 1.691,1.185 l 0,0 -9.879,0 z"
                 style="fill:url(#linearGradient108);stroke:none"
                 id="path120" />
            </g>
          </g>
        </g>
      </g>
      <g
         id="g122">
        <g
           id="g124">
          <g
             id="g130">
            <g
               id="g132">
              <path
                 d="m 440.035,67.703 -3.246,-8.919 2.428,-6.663 c 0.249,-0.691 0.913,-1.185 1.69,-1.185 l 0,0 0.001,0 c 0.778,0 1.441,0.494 1.691,1.185 l 0,0 3.247,8.919 -2.429,6.663 c -0.25,0.692 -0.913,1.185 -1.691,1.185 l 0,0 c -0.777,0 -1.441,-0.493 -1.691,-1.185"
                 style="fill:url(#linearGradient134);stroke:none"
                 id="path144" />
            </g>
          </g>
        </g>
      </g>
      <g
         id="g146">
        <g
           id="g148"
           clip-path="url(#clipPath150-5)">
          <g
             id="g154"
             transform="translate(430.0905,67.6706)">
            <path
               d="m 0,0 -9.361,-25.725 0.114,0 9.348,25.688 c 0.249,0.688 0.908,1.254 1.64,1.254 l 0,0 C 0.964,1.217 0.264,0.729 0,0"
               style="fill:#bcbec0;fill-opacity:1;fill-rule:nonzero;stroke:none"
               id="path156" />
          </g>
          <g
             id="g158"
             transform="translate(439.9621,67.6706)">
            <path
               d="m 0,0 -9.361,-25.725 0.115,0 9.347,25.688 c 0.249,0.688 0.908,1.254 1.64,1.254 l 0,0 C 0.964,1.217 0.264,0.729 0,0"
               style="fill:#939598;fill-opacity:1;fill-rule:nonzero;stroke:none"
               id="path160" />
          </g>
          <g
             id="g162"
             transform="translate(442.6764,52.1548)">
            <path
               d="m 0,0 9.361,25.725 -0.115,0 L -0.101,0.037 C -0.35,-0.65 -1.009,-1.216 -1.741,-1.216 l 0,-0.003 C -0.964,-1.219 -0.264,-0.73 0,0"
               style="fill:#bcbec0;fill-opacity:1;fill-rule:nonzero;stroke:none"
               id="path164" />
          </g>
          <g
             id="g166"
             transform="translate(513.7386,61.7044)">
            <path
               d="m 0,0 c -2.747,0 -4.083,-1.482 -4.083,-4.532 0,-2.735 1.61,-4.435 4.201,-4.435 0.497,0 1.067,0.031 1.843,0.1 l 0,8.686 C 1.184,-0.058 0.56,0 0,0 m 0.025,-11.177 c -4.349,0 -7.048,2.519 -7.048,6.575 0,4.216 2.491,6.835 6.503,6.835 l 0.34,0.002 c 0.501,0 1.195,-0.016 2.141,-0.136 l 0,5.086 2.839,0 0,-17.905 c 0,0 -2.695,-0.457 -4.775,-0.457"
               style="fill:#009fc2;fill-opacity:1;fill-rule:nonzero;stroke:none"
               id="path168" />
          </g>
          <g
             id="g170"
             transform="translate(474.9212,50.9354)">
            <path
               d="M 0,0 -7.661,13.371 -7.663,0 l -2.67,0 0,16.925 3.737,0 7.661,-13.252 0,13.252 2.7,0 L 3.765,0 0,0 Z"
               style="fill:#009fc2;fill-opacity:1;fill-rule:nonzero;stroke:none"
               id="path172" />
          </g>
          <g
             id="g174"
             transform="translate(499.3191,50.6761)">
            <path
               d="m 0,0 c -1.289,0 -2.635,0.144 -4.237,0.452 l -0.169,0.033 0,2.366 0.253,-0.056 c 1.411,-0.3 2.629,-0.559 3.848,-0.559 0.986,0 3.281,0.156 3.281,1.605 0,1.217 -1.587,1.52 -2.861,1.765 l -0.08,0.015 c -0.237,0.047 -0.46,0.091 -0.652,0.14 -1.867,0.485 -3.86,1.213 -3.86,3.716 0,2.441 1.933,3.841 5.303,3.841 1.616,0 2.79,-0.175 3.734,-0.315 l 0.46,-0.069 0,-2.292 -0.246,0.043 c -1.066,0.197 -2.319,0.399 -3.523,0.399 -1.336,0 -2.927,-0.25 -2.927,-1.442 0,-0.987 1.3,-1.269 2.806,-1.596 C 3.234,7.587 5.845,7.017 5.845,4.147 5.845,1.512 3.716,0 0,0"
               style="fill:#009fc2;fill-opacity:1;fill-rule:nonzero;stroke:none"
               id="path176" />
          </g>
          <g
             id="g178"
             transform="translate(527.4897,57.0015)">
            <path
               d="m 0,0 c -2.422,0 -3.923,-0.356 -3.923,-2.131 0,-2.052 1.915,-2.224 3.711,-2.224 0.672,0 1.879,0.085 2.247,0.113 l 0,4.173 C 1.515,-0.049 0.163,0 0,0 m -0.99,-6.325 c -2.937,0 -5.656,0.516 -5.656,4.265 0,4.077 4.204,4.077 6.716,4.077 0.252,0 1.433,-0.054 1.796,-0.07 -0.003,2.288 -0.034,2.834 -3.352,2.834 -1.315,0 -2.776,-0.261 -4.066,-0.492 l -0.246,-0.044 0,2.26 0.168,0.034 c 1.494,0.305 2.935,0.454 4.404,0.454 3.216,0 5.94,-0.325 5.94,-4.314 l 0,-8.7 -0.195,-0.02 C 2.291,-6.291 0.522,-6.325 -0.99,-6.325"
               style="fill:#009fc2;fill-opacity:1;fill-rule:nonzero;stroke:none"
               id="path180" />
          </g>
          <g
             id="g182"
             transform="translate(487.6977,57.0015)">
            <path
               d="m 0,0 c -2.422,0 -3.923,-0.356 -3.923,-2.131 0,-2.052 1.916,-2.224 3.711,-2.224 0.673,0 1.879,0.085 2.248,0.113 l 0,4.173 C 1.515,-0.049 0.164,0 0,0 m -0.99,-6.325 c -2.937,0 -5.656,0.516 -5.656,4.265 0,4.077 4.204,4.077 6.716,4.077 0.252,0 1.433,-0.054 1.796,-0.07 -0.003,2.288 -0.033,2.834 -3.351,2.834 -1.316,0 -2.777,-0.261 -4.067,-0.492 l -0.246,-0.044 0,2.26 0.168,0.034 c 1.495,0.305 2.935,0.454 4.403,0.454 3.217,0 5.942,-0.325 5.942,-4.314 l 0,-8.7 -0.197,-0.02 C 2.291,-6.291 0.522,-6.325 -0.99,-6.325"
               style="fill:#009fc2;fill-opacity:1;fill-rule:nonzero;stroke:none"
               id="path184" />
          </g>
          <g
             id="g186"
             transform="translate(541.7968,61.7117)">
            <path
               d="m 0,0 c -2.88,0 -4.341,-1.468 -4.341,-4.365 0,-3.725 2.181,-4.507 4.012,-4.507 0.445,0 0.948,0 2.056,0.14 l 0,8.652 C 0.858,-0.021 0.459,0 0,0 m 1.701,-16.524 0,5.55 c -1.108,-0.155 -1.697,-0.155 -2.171,-0.155 -1.123,0 -2.37,0.244 -3.338,0.653 -2.16,0.897 -3.451,3.182 -3.451,6.111 0,1.465 0.356,4.138 2.741,5.579 1.193,0.715 2.609,1.02 4.731,1.02 0.761,0 1.787,-0.059 2.78,-0.116 l 1.609,-0.083 0,-17.274 -2.901,-1.285 z"
               style="fill:#009fc2;fill-opacity:1;fill-rule:nonzero;stroke:none"
               id="path188" />
          </g>
        </g>
      </g>
    </g>
  </g>
</svg>
