<?xml version="1.0" encoding="UTF-8" standalone="no"?>
<!-- Created with Inkscape (http://www.inkscape.org/) -->

<svg
   xmlns:dc="http://purl.org/dc/elements/1.1/"
   xmlns:cc="http://creativecommons.org/ns#"
   xmlns:rdf="http://www.w3.org/1999/02/22-rdf-syntax-ns#"
   xmlns:svg="http://www.w3.org/2000/svg"
   xmlns="http://www.w3.org/2000/svg"
   xmlns:xlink="http://www.w3.org/1999/xlink"
   xmlns:sodipodi="http://sodipodi.sourceforge.net/DTD/sodipodi-0.dtd"
   xmlns:inkscape="http://www.inkscape.org/namespaces/inkscape"
   width="1000"
   height="1003.0964"
   id="svg2"
   version="1.1"
   inkscape:version="0.48.2 r9819"
   sodipodi:docname="New document 1">
  <defs
     id="defs4">
    <linearGradient
       id="linearGradient3008">
      <stop
         style="stop-color:#ace1f9;stop-opacity:1"
         offset="0"
         id="stop3010" />
      <stop
         id="stop3032"
         offset="0.1"
         style="stop-color:#98daf6;stop-opacity:1" />
      <stop
         id="stop3030"
         offset="0.2"
         style="stop-color:#7dd3f3;stop-opacity:1" />
      <stop
         id="stop3028"
         offset="0.30000001"
         style="stop-color:#52caef;stop-opacity:1" />
      <stop
         id="stop3026"
         offset="0.40000001"
         style="stop-color:#17c0eb;stop-opacity:1" />
      <stop
         id="stop3024"
         offset="0.5"
         style="stop-color:#00b3e2;stop-opacity:1" />
      <stop
         id="stop3022"
         offset="0.60000002"
         style="stop-color:#009dd0;stop-opacity:1" />
      <stop
         id="stop3020"
         offset="0.69999999"
         style="stop-color:#008abf;stop-opacity:1" />
      <stop
         id="stop3018"
         offset="0.80000001"
         style="stop-color:#0b77af;stop-opacity:1" />
      <stop
         id="stop3016"
         offset="0.89999998"
         style="stop-color:#1766a1;stop-opacity:1" />
      <stop
         style="stop-color:#145b98;stop-opacity:1"
         offset="1"
         id="stop3012" />
    </linearGradient>
    <linearGradient
       inkscape:collect="always"
       xlink:href="#linearGradient3008"
       id="linearGradient3014"
       x1="162"
       y1="414.36218"
       x2="162"
       y2="694.36218"
       gradientUnits="userSpaceOnUse"
       gradientTransform="matrix(2.2965517,0,0,2.2965517,-210.04138,-1102.9901)" />
    <linearGradient
       inkscape:collect="always"
       xlink:href="#linearGradient3008"
       id="linearGradient3036"
       gradientUnits="userSpaceOnUse"
       x1="162"
       y1="414.36218"
       x2="162"
       y2="694.36218"
       gradientTransform="matrix(2.2965517,0,0,2.2965517,-35.503448,-1102.9901)" />
    <linearGradient
       inkscape:collect="always"
       xlink:href="#linearGradient3008"
       id="linearGradient3040"
       gradientUnits="userSpaceOnUse"
       gradientTransform="matrix(2.2965517,0,0,2.2965517,138.17436,-1102.9901)"
       x1="162"
       y1="414.36218"
       x2="162"
       y2="694.36218" />
    <linearGradient
       inkscape:collect="always"
       xlink:href="#linearGradient3008"
       id="linearGradient3044"
       gradientUnits="userSpaceOnUse"
       gradientTransform="matrix(2.2965517,0,0,2.2965517,313.57241,-1102.9901)"
       x1="162"
       y1="414.36218"
       x2="162"
       y2="694.36218" />
    <linearGradient
       inkscape:collect="always"
       xlink:href="#linearGradient3008"
       id="linearGradient3048"
       gradientUnits="userSpaceOnUse"
       gradientTransform="matrix(2.2965517,0,0,2.2965517,485.81379,-1102.9901)"
       x1="162"
       y1="414.36218"
       x2="162"
       y2="694.36218" />
    <linearGradient
       inkscape:collect="always"
       xlink:href="#linearGradient3008"
       id="linearGradient3052"
       gradientUnits="userSpaceOnUse"
       gradientTransform="matrix(2.2965517,0,0,2.2965517,660.35172,-1102.9901)"
       x1="162"
       y1="414.36218"
       x2="162"
       y2="694.36218" />
  </defs>
  <sodipodi:namedview
     id="base"
     pagecolor="#ffffff"
     bordercolor="#666666"
     borderopacity="1.0"
     inkscape:pageopacity="0.0"
     inkscape:pageshadow="2"
     inkscape:zoom="0.2503125"
     inkscape:cx="653.98854"
     inkscape:cy="344.51744"
     inkscape:document-units="px"
     inkscape:current-layer="layer1"
     showgrid="false"
     fit-margin-left="0.5"
     fit-margin-bottom="0.5"
     fit-margin-top="0.5"
     fit-margin-right="0.5"
     inkscape:window-width="1065"
     inkscape:window-height="1037"
     inkscape:window-x="851"
     inkscape:window-y="-20"
     inkscape:window-maximized="0">
    <inkscape:grid
       type="xygrid"
       id="grid2996"
       empspacing="5"
       visible="true"
       enabled="true"
       snapvisiblegridlinesonly="true" />
  </sodipodi:namedview>
  <metadata
     id="metadata7">
    <rdf:RDF>
      <cc:Work
         rdf:about="">
        <dc:format>image/svg+xml</dc:format>
        <dc:type
           rdf:resource="http://purl.org/dc/dcmitype/StillImage" />
        <dc:title></dc:title>
      </cc:Work>
    </rdf:RDF>
  </metadata>
  <g
     inkscape:label="Layer 1"
     inkscape:groupmode="layer"
     id="layer1"
     transform="translate(-161.5,151.88596)">
    <path
       style="fill:#000000;stroke:none"
       d="m 219.41379,847.61404 -57.41379,0 0,-289.36552 57.41666,0 117.12127,184.00799 0,-184.00799 57.41379,0 0,289.36552 -53.68081,0 -120.85712,-190.32422 z"
       id="path2998"
       inkscape:connector-curvature="0"
       sodipodi:nodetypes="ccccccccccc" />
    <path
       style="fill:#000000;stroke:none"
       d="m 435.28966,558.24852 70.03316,0 64.30344,105.93137 64.59344,-105.93137 71.21643,0 -107.0913,164.5051 0,124.86042 -57.4138,0 0,-126.31035 z"
       id="path3000"
       inkscape:connector-curvature="0"
       sodipodi:nodetypes="cccccccccc" />
    <path
       style="fill:#000000;stroke:none"
       d="m 883.48621,639.89252 29.86828,-46.83234 c 0,0 -34.23104,-37.26286 -97.28944,-37.26286 -63.97144,0 -93.51967,43.05823 -93.51967,85.69011 0,42.71288 41.20025,71.19604 69.04093,82.15344 42.62988,15.01718 72.76098,22.39425 72.76098,43.84437 0,16.27497 -16.50453,28.41838 -39.72772,28.41838 -43.55732,0 -78.00555,-35.52297 -78.00555,-35.52297 l -31.17323,48.5722 c 0,0 41.58037,41.75763 108.16382,41.75763 51.57235,0 97.57945,-35.93571 97.57945,-89.02491 0,-47.8185 -40.63282,-74.1537 -76.11363,-84.26671 -30.75368,-8.96144 -63.22343,-17.551 -63.22343,-39.26625 0,-14.18792 11.86969,-27.25844 32.62314,-27.25844 35.19117,0 69.01607,28.99835 69.01607,28.99835 z"
       id="path3002"
       inkscape:connector-curvature="0"
       sodipodi:nodetypes="ccccccccccccccc" />
    <path
       style="fill:#000000;stroke:none"
       d="m 972.68276,847.61404 0,-289.36552 188.31724,0 0,50.52414 -130.9034,0 0,68.89655 112.531,0 0,50.52414 -112.531,0 0,68.89655 130.9034,0 0,50.52414 z"
       id="path3004"
       inkscape:connector-curvature="0" />
    <path
       style="fill:url(#linearGradient3014);fill-opacity:1;stroke:none"
       d="m 162,491.64853 0,-643.03448 128.6069,0 0,643.03448 z"
       id="path3006"
       inkscape:connector-curvature="0" />
    <path
       inkscape:connector-curvature="0"
       id="path3034"
       d="m 336.53793,491.64852 0,-643.03448 128.6069,0 0,643.03448 z"
       style="fill:url(#linearGradient3036);fill-opacity:1;stroke:none" />
    <path
       style="fill:url(#linearGradient3040);fill-opacity:1;stroke:none"
       d="m 510.21573,491.64852 0,-643.03448 128.6069,0 0,643.03448 z"
       id="path3038"
       inkscape:connector-curvature="0" />
    <path
       inkscape:connector-curvature="0"
       id="path3042"
       d="m 685.61379,491.64852 0,-643.03448 128.6069,0 0,643.03448 z"
       style="fill:url(#linearGradient3044);fill-opacity:1;stroke:none" />
    <path
       style="fill:url(#linearGradient3048);fill-opacity:1;stroke:none"
       d="m 857.85517,491.64852 0,-643.03448 128.6069,0 0,643.03448 z"
       id="path3046"
       inkscape:connector-curvature="0" />
    <path
       inkscape:connector-curvature="0"
       id="path3050"
       d="m 1032.3931,491.64852 0,-643.03448 128.6069,0 0,643.03448 z"
       style="fill:url(#linearGradient3052);fill-opacity:1;stroke:none" />
  </g>
</svg>
