<?xml version="1.0" encoding="utf-8"?>
<!-- Generator: Adobe Illustrator 15.0.2, SVG Export Plug-In . SVG Version: 6.00 Build 0)  -->
<!DOCTYPE svg PUBLIC "-//W3C//DTD SVG 1.1//EN" "http://www.w3.org/Graphics/SVG/1.1/DTD/svg11.dtd">
<svg version="1.1" id="Layer_1" xmlns="http://www.w3.org/2000/svg" xmlns:xlink="http://www.w3.org/1999/xlink" x="0px" y="0px"
	 width="280px" height="175px" viewBox="0 0 280 175" enable-background="new 0 0 280 175" xml:space="preserve">
<g>
	<path fill="#16202C" d="M65.59,119.479v1.912c-0.645,0.335-1.817,0.619-3.409,0.832c-1.564,0.195-3.109,0.271-4.032,0.271
		c-0.924,0-2.469-0.076-4.033-0.271c-1.592-0.213-2.764-0.497-3.409-0.832v-1.912v-2.469c1.81,0.786,5.702,1.039,7.442,1.039
		c1.739,0,5.632-0.253,7.441-1.039V119.479z M90.16,111.787c-1.467-0.358-2.896-0.6-4.275-0.729l-0.062,0.512
		c1.296,0.115,2.642,0.342,4.022,0.667v4.556c-2.139-0.474-4.198-0.758-6.121-0.758c-2.14,0-4.159,0.32-6.172,0.939
		c-1.736,0.556-3.187,1.229-4.467,1.846c-1.648,0.781-2.951,1.39-4.188,1.39h-0.001c-0.314,0-0.612-0.038-0.906-0.118v-1.205v-3.355
		c0.294,0.063,0.593,0.096,0.906,0.096c1.353,0,2.768-0.662,4.408-1.441c1.82-0.865,3.958-1.881,6.743-2.395l-0.103-0.496
		c-0.803,0.148-1.598,0.348-2.391,0.594c-1.738,0.541-3.188,1.228-4.467,1.836c-1.477,0.697-2.676,1.273-3.799,1.381v-0.625
		c0-0.385-0.131-0.992-1.585-0.992c-1.456,0-3.059,0.941-3.059,2.006v1.296c-1.771,0.507-4.681,0.778-6.493,0.778
		c-0.925,0-2.47-0.082-4.033-0.309c-0.992-0.096-1.818-0.277-2.458-0.469v-1.297c0-1.064-1.607-2.006-3.063-2.006
		c-1.454,0-1.584,0.607-1.584,0.992v0.625c-1.124-0.107-2.321-0.684-3.8-1.381c-1.852-0.877-4.027-1.916-6.872-2.434l-0.032,0.514
		c2.757,0.516,4.878,1.521,6.686,2.381c1.639,0.779,3.055,1.441,4.406,1.441c0.314,0,0.613-0.033,0.908-0.096v3.355v1.205
		c-0.294,0.08-0.592,0.118-0.908,0.118c-1.236,0-2.539-0.608-4.188-1.39c-2.594-1.217-5.824-2.785-10.639-2.785
		c-1.925,0-3.982,0.284-6.119,0.758v-4.556c1.325-0.311,2.62-0.536,3.869-0.653l-0.01-0.514c-1.346,0.129-2.743,0.369-4.175,0.717
		l-0.194,0.051v5.623l0.316-0.088c2.211-0.561,4.335-0.817,6.313-0.817c4.701,0,7.871,1.495,10.419,2.718
		c1.64,0.78,3.056,1.454,4.407,1.454c0.435,0,0.843-0.071,1.245-0.206l0.173-0.059v-1.572c0.474,0.023,0.954,0.157,1.381,0.338
		v2.453l0.124,0.076c1.573,0.944,5.952,1.252,7.829,1.252c1.874,0,6.255-0.308,7.828-1.252l0.125-0.076v-2.453
		c0.425-0.181,0.905-0.314,1.378-0.338v1.572l0.172,0.059c0.401,0.135,0.811,0.206,1.244,0.206h0.001
		c1.352,0,2.768-0.674,4.408-1.454c2.548-1.223,5.719-2.718,10.419-2.718c1.979,0,4.103,0.257,6.322,0.817l0.304,0.088v-5.623
		L90.16,111.787z"/>
	<path fill="#16202C" d="M28.999,113.649c0-0.106,0-0.259,0.011-0.393c0.765,0.034,0.826,0.633,0.826,0.821
		c0,0.597-0.429,0.937-0.826,1.047c-0.011-0.143-0.011-0.254-0.011-0.484V113.649z M28.415,115.508l-0.031,0.09l0.201-0.031
		c0.158-0.021,0.322-0.044,0.482-0.064c0.769-0.104,1.327-0.712,1.327-1.432c0-0.29-0.09-0.557-0.262-0.76
		c-0.234-0.284-0.554-0.42-0.979-0.42c-0.128,0-0.268,0.013-0.435,0.037c-0.112,0.018-0.178,0.032-0.259,0.053l-0.061,0.017
		l0.015,0.062c0.003,0.016,0.008,0.035,0.014,0.055c0.032,0.121,0.08,0.295,0.08,0.588v1.051
		C28.507,115.209,28.462,115.355,28.415,115.508"/>
	<path fill="#16202C" d="M31.588,113.316v1.182c0,0.396-0.044,0.549-0.092,0.689l-0.028,0.089l0.09-0.003
		c0.217-0.008,0.395-0.014,0.559-0.016H32.2l-0.023-0.076c-0.072-0.246-0.09-0.385-0.09-0.667v-1.142
		c0-0.36,0.043-0.489,0.087-0.631l0.029-0.093h-0.087c-0.228,0.003-0.401,0.009-0.562,0.016l-0.091,0.003l0.034,0.086
		C31.554,112.894,31.588,113.032,31.588,113.316"/>
	<path fill="#16202C" d="M34.649,115.381c0.063,0.006,0.125,0.01,0.184,0.01c0.302,0,0.492-0.082,0.63-0.136l0.041-0.015
		l0.029-0.541l-0.105,0.066c-0.117,0.071-0.294,0.189-0.586,0.189c-0.037,0-0.076-0.002-0.113-0.007
		c-0.6-0.054-0.869-0.513-0.869-0.944c0-0.492,0.326-0.838,0.791-0.838c0.029,0,0.06,0.002,0.092,0.004
		c0.265,0.023,0.458,0.128,0.627,0.231l0.098,0.065v-0.556l-0.038-0.018c-0.12-0.052-0.285-0.129-0.561-0.156
		c-0.054-0.005-0.107-0.005-0.16-0.005c-0.675,0-1.374,0.484-1.374,1.293c0,0.14,0.024,0.489,0.275,0.819
		C33.842,115.156,34.203,115.34,34.649,115.381"/>
	<path fill="#16202C" d="M38.37,113.901l0.057,0.038l0.033-0.061c0.064-0.12,0.125-0.238,0.176-0.343l0.036-0.073l-0.079-0.019
		c-0.624-0.146-1.258-0.271-1.882-0.374l-0.054-0.008l-0.018,0.052c-0.027,0.079-0.054,0.156-0.08,0.231l-0.091,0.267l0.108-0.019
		c0.218-0.044,0.378-0.064,0.508-0.064c0.089,0,0.155,0.011,0.224,0.025v1.549c-0.002,0.298-0.035,0.461-0.07,0.596l-0.017,0.074
		l0.066,0.015c0.194,0.04,0.355,0.075,0.515,0.11l0.102,0.017l-0.027-0.102c-0.047-0.191-0.071-0.368-0.071-0.602v-1.56
		C38.038,113.705,38.129,113.752,38.37,113.901"/>
	<path fill="#16202C" d="M40.342,114.174l0.023-0.064l-0.062-0.02c-0.177-0.063-0.357-0.123-0.537-0.184l-0.124-0.041l0.046,0.133
		c0.039,0.111,0.073,0.211,0.073,0.572v0.978c0,0.61,0.33,1.119,0.86,1.284c0.148,0.061,0.301,0.09,0.456,0.09
		c0.119,0,0.222-0.018,0.297-0.033c-0.003,0.036-0.008,0.08-0.017,0.161l-0.007,0.065l0.047,0.021
		c0.147,0.051,0.289,0.078,0.439,0.146l0.111,0.053l-0.021-0.129c-0.065-0.352-0.065-0.457-0.065-0.654v-1.328
		c0-0.318,0.026-0.375,0.06-0.449l0.027-0.059l-0.127-0.051c-0.156-0.061-0.312-0.129-0.468-0.192l-0.136-0.052l0.054,0.141
		c0.084,0.211,0.084,0.477,0.084,0.58v0.975c0,0.177-0.004,0.209-0.015,0.232c-0.043,0.111-0.167,0.203-0.318,0.203
		c-0.056,0-0.114-0.013-0.173-0.038c-0.145-0.06-0.421-0.209-0.539-0.552c-0.034-0.085-0.046-0.192-0.046-0.346v-0.898
		C40.267,114.381,40.29,114.307,40.342,114.174"/>
	<path fill="#16202C" d="M45.942,116.442l0.081-0.054l-0.093-0.033c-0.165-0.07-0.333-0.154-0.475-0.223l-0.047-0.023l-0.03,0.049
		c-0.065,0.104-0.095,0.13-0.164,0.182c-0.207,0.154-0.41,0.35-0.618,0.5l-0.054,0.051l-0.157-0.24
		c-0.159-0.272-0.317-0.535-0.476-0.775c-0.135-0.234-0.169-0.316-0.209-0.412l-0.01-0.029l-0.028-0.009
		c-0.209-0.087-0.392-0.156-0.561-0.21l-0.18-0.057l0.107,0.154c0.078,0.127,0.155,0.231,0.234,0.333v1.542
		c0,0.408-0.064,0.501-0.106,0.594l-0.035,0.074l0.07,0.025c0.204,0.08,0.402,0.141,0.585,0.183l0.131,0.054l-0.049-0.104
		c-0.09-0.262-0.1-0.48-0.1-0.584v-1.032c0.236,0.387,0.477,0.79,0.713,1.198l0.04,0.025l0.058-0.008
		c0.242-0.238,0.484-0.426,0.713-0.639v1.051c0,0.249-0.031,0.407-0.1,0.526l-0.033,0.069l0.065,0.031
		c0.21,0.1,0.4,0.176,0.58,0.244l0.14,0.064l-0.053-0.129c-0.099-0.284-0.107-0.477-0.107-0.699v-1.225
		C45.773,116.594,45.851,116.525,45.942,116.442"/>
	<path fill="#16202C" d="M54.483,118.797l-0.042-0.005l-0.021,0.03c-0.072,0.1-0.102,0.137-0.173,0.222
		c-0.235,0.256-0.474,0.522-0.685,0.733c-0.206-0.279-0.421-0.584-0.63-0.906c-0.131-0.18-0.168-0.271-0.208-0.387l-0.012-0.023
		l-0.035-0.006c-0.186-0.03-0.373-0.061-0.558-0.105l-0.17-0.041l0.106,0.131c0.038,0.037,0.075,0.088,0.112,0.145
		c0.039,0.059,0.079,0.115,0.119,0.176v1.52c0,0.379-0.064,0.521-0.106,0.611l-0.033,0.07l0.077,0.019
		c0.196,0.045,0.396,0.086,0.585,0.125l0.118,0.024l-0.046-0.109c-0.096-0.229-0.103-0.48-0.103-0.549v-1.045l0.034,0.053
		c0.225,0.315,0.458,0.658,0.689,0.985l0.044,0.063l0.054-0.057c0.244-0.267,0.485-0.521,0.72-0.786v1.016
		c0,0.255-0.028,0.419-0.101,0.573l-0.037,0.078l0.084,0.014c0.2,0.029,0.399,0.056,0.597,0.083l0.109,0.016l-0.042-0.103
		c-0.1-0.24-0.106-0.451-0.106-0.649v-1.22c0-0.326,0.082-0.425,0.18-0.545l0.085-0.084l-0.124-0.012
		C54.791,118.835,54.616,118.813,54.483,118.797"/>
	<path fill="#16202C" d="M56.435,121.23v-0.773c0.143,0.02,0.244,0.047,0.487,0.127l0.047,0.016l0.027-0.041
		c0.071-0.11,0.143-0.223,0.214-0.344l0.057-0.09l-0.108-0.004c-0.243-0.01-0.485-0.023-0.725-0.037v-0.752
		c0.212,0.012,0.348,0.057,0.601,0.195l0.057,0.028l0.028-0.062c0.035-0.075,0.067-0.148,0.102-0.208
		c0.029-0.054,0.057-0.104,0.088-0.165l0.045-0.102l-0.1-0.002c-0.437-0.018-0.89-0.049-1.344-0.093l-0.096-0.005l0.029,0.098
		c0.057,0.191,0.091,0.412,0.091,0.625v1.217c0,0.322-0.054,0.491-0.091,0.614l-0.024,0.07l0.08,0.008
		c0.405,0.035,0.835,0.063,1.314,0.081l0.044,0.002l0.018-0.04c0.039-0.087,0.078-0.172,0.118-0.26l0.124-0.273l-0.134,0.039
		C56.869,121.256,56.707,121.248,56.435,121.23"/>
	<path fill="#16202C" d="M58.352,119.669v0.981c0,0.613,0.331,1.005,0.84,1.005c0.014,0,0.027-0.002,0.042-0.002
		c0.302-0.011,0.554-0.146,0.723-0.249c-0.002,0.028-0.005,0.065-0.012,0.113l-0.009,0.077l0.093-0.008
		c0.141-0.012,0.284-0.022,0.428-0.036l0.071-0.007l-0.015-0.065c-0.066-0.323-0.066-0.467-0.066-0.635v-1.316
		c0-0.322,0.026-0.391,0.063-0.506l0.034-0.104l-0.1,0.007c-0.174,0.018-0.354,0.034-0.533,0.046l-0.098,0.008l0.044,0.096
		c0.085,0.171,0.085,0.431,0.085,0.54v0.977c0,0.157-0.007,0.19-0.018,0.232c-0.058,0.195-0.258,0.409-0.516,0.421h-0.015
		c-0.036,0-0.363-0.009-0.497-0.33c-0.033-0.082-0.045-0.172-0.045-0.319v-0.906c0-0.351,0.023-0.425,0.075-0.569l0.03-0.1
		l-0.094,0.006c-0.143,0.005-0.29,0.008-0.433,0.01l-0.189,0.003l0.037,0.106C58.318,119.236,58.352,119.31,58.352,119.669"/>
	<path fill="#16202C" d="M61.593,119.182v1.517c0,0.365-0.057,0.527-0.107,0.652l-0.043,0.102l0.11-0.014
		c0.174-0.021,0.363-0.046,0.593-0.08l0.086-0.012l-0.038-0.078c-0.094-0.198-0.1-0.44-0.1-0.511v-1.083
		c0.255,0.284,0.496,0.533,0.731,0.786l0.055,0.057l0.043-0.063c0.215-0.312,0.443-0.647,0.713-1.041v0.98
		c0,0.251-0.031,0.438-0.105,0.617l-0.045,0.109l0.25-0.054c0.15-0.03,0.307-0.065,0.46-0.101l0.077-0.02l-0.035-0.072
		c-0.104-0.211-0.104-0.444-0.104-0.6v-1.226c0-0.335,0.085-0.474,0.184-0.607l0.096-0.128l-0.164,0.043
		c-0.155,0.039-0.313,0.064-0.48,0.092l-0.031,0.004l-0.015,0.023c-0.064,0.146-0.096,0.197-0.16,0.3l-0.01,0.013
		c-0.162,0.22-0.325,0.459-0.486,0.693l-0.207,0.287c-0.215-0.213-0.424-0.455-0.625-0.664c-0.129-0.157-0.166-0.221-0.204-0.294
		l-0.02-0.038l-0.048,0.005c-0.221,0.027-0.399,0.047-0.562,0.063l-0.132,0.012l0.094,0.083
		C61.442,119.021,61.518,119.105,61.593,119.182"/>
	<path fill="#16202C" d="M70.902,116.545c0-0.078,0.005-0.164,0.01-0.223c0.291-0.147,0.457-0.167,0.583-0.064
		c0.085,0.064,0.128,0.137,0.128,0.271c0,0.348-0.484,0.659-0.722,0.7V116.545z M72.135,116.375c0-0.34-0.269-0.551-0.656-0.551
		c-0.126,0-0.258,0.027-0.388,0.075c-0.123,0.04-0.344,0.115-0.521,0.188c-0.081,0.039-0.155,0.071-0.211,0.098l-0.064,0.028
		l0.033,0.07c0.033,0.062,0.085,0.14,0.085,0.573v1.033c0,0.384-0.058,0.611-0.1,0.814l-0.035,0.137l0.114-0.036
		c0.144-0.054,0.289-0.115,0.434-0.177l0.184-0.078l-0.014-0.063c-0.045-0.153-0.093-0.458-0.093-0.631v-0.236
		C71.516,117.421,72.135,116.914,72.135,116.375"/>
	<path fill="#16202C" d="M77.086,114.042c0.099-0.027,0.193-0.04,0.288-0.04c0.133,0,0.242,0.024,0.339,0.051l0.09,0.023
		l-0.009-0.092c-0.013-0.131-0.026-0.26-0.039-0.395l-0.006-0.056l-0.052-0.003c-0.052-0.005-0.109-0.01-0.178-0.01
		c-0.122,0-0.247,0.018-0.384,0.054c-0.423,0.116-0.794,0.378-1.046,0.739c-0.228,0.336-0.342,0.728-0.31,1.075
		c0.047,0.483,0.372,0.958,0.99,0.958c0.135,0,0.283-0.018,0.437-0.062c0.408-0.127,0.628-0.302,0.774-0.399l0.027-0.021
		l-0.001-0.037c-0.005-0.145-0.01-0.27-0.018-0.391l-0.008-0.169l-0.101,0.125c-0.125,0.133-0.311,0.333-0.672,0.446
		c-0.092,0.027-0.181,0.042-0.264,0.042c-0.362,0-0.613-0.272-0.651-0.677C76.24,114.676,76.575,114.184,77.086,114.042"/>
	<path fill="#16202C" d="M79.132,113.186l-0.072,0.234c-0.024,0.083-0.048,0.165-0.072,0.246l-0.044,0.146l0.136-0.073
		c0.409-0.223,0.573-0.271,0.71-0.294v1.533c0,0.281-0.036,0.484-0.071,0.62l-0.022,0.089l0.094-0.015
		c0.207-0.035,0.367-0.056,0.515-0.071l0.073-0.011l-0.02-0.063c-0.045-0.159-0.068-0.35-0.068-0.57v-1.589
		c0.084-0.012,0.146-0.017,0.202-0.017c0.112,0,0.204,0.021,0.377,0.064l0.052,0.015l0.022-0.049
		c0.035-0.076,0.068-0.153,0.102-0.231c0.026-0.058,0.05-0.116,0.074-0.171l0.046-0.1l-0.112,0.013
		c-0.629,0.069-1.263,0.167-1.884,0.284L79.132,113.186z"/>
	<path fill="#16202C" d="M82.278,113.403v0.982c0,0.612,0.323,0.983,0.844,0.983c0.013,0,0.026,0,0.04,0
		c0.308-0.014,0.566-0.15,0.726-0.239c-0.003,0.023-0.007,0.054-0.011,0.095l-0.011,0.096h0.592l-0.015-0.078
		c-0.064-0.328-0.064-0.465-0.064-0.633v-1.328c-0.001-0.323,0.025-0.389,0.062-0.484l0.032-0.086l-0.089-0.002
		c-0.179-0.002-0.357,0-0.536,0.002l-0.099,0.002l0.042,0.093c0.083,0.167,0.083,0.429,0.083,0.534v0.984
		c0,0.152-0.006,0.188-0.017,0.232c-0.067,0.218-0.287,0.395-0.513,0.401h-0.011c-0.038,0-0.372-0.01-0.504-0.326
		c-0.034-0.085-0.047-0.173-0.047-0.317v-0.91c0-0.33,0.021-0.419,0.078-0.572l0.033-0.095l-0.096,0.007
		c-0.179,0.011-0.357,0.022-0.537,0.033l-0.088,0.011l0.034,0.083C82.247,112.963,82.278,113.042,82.278,113.403"/>
	<path fill="#16202C" d="M85.656,112.975c0.042,0.049,0.081,0.096,0.122,0.146v1.531c0,0.393-0.066,0.534-0.106,0.618l-0.039,0.094
		l0.093,0.008c0.171,0.01,0.35,0.025,0.584,0.043l0.102,0.011l-0.039-0.108c-0.093-0.212-0.099-0.467-0.099-0.536v-1.048
		c0.236,0.311,0.476,0.636,0.716,0.965l0.047,0.063l0.052-0.059c0.236-0.275,0.471-0.539,0.705-0.81v1.007
		c0,0.259-0.03,0.424-0.1,0.588l-0.034,0.071l0.083,0.011c0.2,0.025,0.391,0.051,0.583,0.079l0.113,0.018l-0.044-0.099
		c-0.104-0.256-0.104-0.484-0.104-0.649v-1.22c0-0.338,0.081-0.419,0.174-0.522l0.083-0.089l-0.12-0.02
		c-0.073-0.012-0.144-0.023-0.219-0.034c-0.083-0.014-0.168-0.03-0.256-0.042l-0.04-0.008l-0.021,0.038
		c-0.075,0.123-0.104,0.154-0.173,0.231l-0.152,0.168c-0.173,0.199-0.346,0.397-0.521,0.596c-0.197-0.271-0.403-0.549-0.627-0.844
		c-0.128-0.178-0.164-0.254-0.203-0.346l-0.015-0.038l-0.039-0.005c-0.187-0.013-0.376-0.025-0.563-0.035l-0.147-0.011l0.096,0.117
		C85.583,112.894,85.62,112.934,85.656,112.975"/>
	<path fill="#16202C" d="M73.603,116.353c0.05-0.167,0.1-0.341,0.149-0.481c0.015-0.059,0.031-0.116,0.047-0.174
		c0.047,0.081,0.094,0.162,0.143,0.229c0.046,0.06,0.091,0.122,0.137,0.2l0.109,0.18l-0.663,0.291L73.603,116.353z M74.416,116.643
		c0,0.002,0.002,0.005,0.004,0.008c0.104,0.14,0.128,0.249,0.138,0.354l0.009,0.094l0.077-0.033
		c0.206-0.086,0.411-0.166,0.585-0.235l0.105-0.032l-0.085-0.041c-0.096-0.089-0.226-0.216-0.448-0.523
		c-0.133-0.208-0.265-0.372-0.396-0.583c-0.211-0.288-0.421-0.585-0.631-0.888l-0.033-0.045l-0.049,0.027l-0.037,0.008l-0.012,0.032
		c-0.234,0.715-0.484,1.479-0.731,2.246c-0.158,0.498-0.219,0.593-0.284,0.71l-0.09,0.188l0.172-0.09
		c0.21-0.105,0.402-0.197,0.589-0.234l0.049-0.021l-0.01-0.058c-0.026-0.15,0.01-0.337,0.043-0.433L74.416,116.643z"/>
	<path fill="#16202C" d="M51.274,97.396c0.031,0.219,0.078,0.501,0.117,0.728c-0.092,0.102-0.148,0.238-0.148,0.387
		c0,0.317,0.258,0.572,0.575,0.572c0.318,0,0.577-0.255,0.577-0.572c0-0.148-0.056-0.285-0.148-0.387
		c0.04-0.227,0.089-0.51,0.119-0.728c0.389-0.052,0.752-0.155,1.076-0.306l0.002-1.066c-0.397,0.214-0.693,0.319-1.048,0.364v-1.754
		c0-0.794-0.118-1.868-0.577-2.104c-0.457,0.236-0.575,1.311-0.575,2.104v1.754c-0.354-0.045-0.651-0.15-1.048-0.364l0.002,1.066
		C50.52,97.24,50.886,97.344,51.274,97.396"/>
	<path fill="#16202C" d="M52.057,89.452c1.047-0.019,1.865-0.18,1.865-0.374c0,0,0-0.006-0.001-0.008l-0.044-0.072
		c-0.187-0.16-0.917-0.281-1.819-0.299V89.452z"/>
	<path fill="#16202C" d="M51.847,85.688c0.231,0,0.417-0.188,0.417-0.418c0-0.229-0.186-0.418-0.417-0.418
		c-0.23,0-0.417,0.189-0.417,0.418C51.429,85.5,51.616,85.688,51.847,85.688"/>
	<path fill="#16202C" d="M51.637,86.199c-0.009-0.002-0.018-0.005-0.027-0.006l-1.471,2.301c0.408-0.111,0.927-0.159,1.498-0.169
		V86.199z"/>
	<path fill="#16202C" d="M51.637,89.452v-0.753c-0.887,0.018-1.61,0.134-1.814,0.289l-0.057,0.091
		C49.771,89.273,50.589,89.434,51.637,89.452"/>
	<path fill="#16202C" d="M64.659,86.199v2.126c0.57,0.01,1.09,0.058,1.499,0.167l-1.471-2.299
		C64.678,86.193,64.669,86.197,64.659,86.199"/>
	<path fill="#16202C" d="M52.057,86.198v2.127c0.571,0.01,1.089,0.058,1.497,0.167l-1.468-2.299
		C52.075,86.193,52.067,86.197,52.057,86.198"/>
	<path fill="#16202C" d="M64.659,89.452c1.049-0.019,1.867-0.18,1.867-0.374c0,0,0-0.006,0-0.008l-0.046-0.074
		c-0.187-0.158-0.918-0.279-1.82-0.297V89.452z"/>
	<path fill="#16202C" d="M62.369,89.079c0.006,0.194,0.825,0.354,1.873,0.373v-0.753c-0.888,0.018-1.611,0.134-1.813,0.289
		L62.369,89.079z"/>
	<path fill="#16202C" d="M64.451,85.688c0.232,0,0.417-0.188,0.417-0.418c0-0.229-0.185-0.418-0.417-0.418
		c-0.231,0-0.416,0.189-0.416,0.418C64.035,85.5,64.219,85.688,64.451,85.688"/>
	<path fill="#16202C" d="M62.743,88.494c0.408-0.111,0.926-0.159,1.499-0.169v-2.126c-0.01-0.002-0.019-0.003-0.028-0.005
		L62.743,88.494z"/>
	<path fill="#16202C" d="M64.453,90.885c-1.442,0-2.611-0.676-2.611-1.51c0-0.166,0.036-0.311,0.12-0.431l1.878-2.943
		c-0.15-0.126-0.261-0.296-0.311-0.491c-1.258,0.015-1.827,0.152-2.557,0.693c-0.706-0.523-1.263-0.669-2.437-0.691
		c0.136,0.536,0.37,1.062,0.67,1.428c-0.415,0.552-0.694,0.882-1.058,1.689c-0.362-0.808-0.644-1.138-1.06-1.689
		c0.304-0.366,0.537-0.892,0.673-1.428c-1.174,0.022-1.733,0.168-2.438,0.691c-0.729-0.541-1.299-0.678-2.557-0.693
		c-0.05,0.195-0.163,0.365-0.313,0.492l1.88,2.942c0.085,0.12,0.125,0.265,0.125,0.431c0,0.834-1.169,1.51-2.613,1.51
		c-1.439,0-2.61-0.676-2.61-1.51c0-0.166,0.039-0.311,0.123-0.431l1.875-2.941c-0.21-0.174-0.342-0.437-0.342-0.733
		c0-0.526,0.426-0.952,0.954-0.952c0.421,0,0.779,0.274,0.904,0.654h4.86v-0.006c0-0.299,0.242-0.538,0.538-0.538
		c0.296,0,0.537,0.239,0.537,0.538v0.006h4.86c0.125-0.38,0.483-0.654,0.905-0.654c0.525,0,0.953,0.426,0.953,0.952
		c0,0.296-0.133,0.559-0.342,0.732l1.877,2.942c0.086,0.121,0.126,0.265,0.126,0.431C67.065,90.209,65.893,90.885,64.453,90.885
		 M69.997,81.938h-4.416l-2.131-0.003c-1.264-0.006-2.302,0.322-2.937,0.544c-0.816,0.288-1.264,0.735-2.402,1.263
		c-1.136,0.53-2.125,0.449-2.125,0.449c-1.746-0.15-2.585-1.493-2.585-1.493s-0.377-0.54-0.447-0.769l-0.35,0.008H46.3v11.349
		l0.511,0.524v-1.924h9.384v8.034h-9.336H46.83c-0.492,0.452-0.19,0.73-0.339,1.112c0.167-0.043,0.271-0.077,0.498-0.076
		c0.636-0.397,2.071-1.05,2.936,0.502c-0.529,0.092-1.192,0.143-1.659,0.502c0.134,0.321,0.134,0.863,0.085,1.172h7.843v11.174
		c-2.505-0.91-4.621-2.498-6.188-4.662c-1.014-1.402-1.789-3.01-2.321-4.812c-0.145,0.134-0.302,0.248-0.458,0.257
		c0.548,1.811,1.337,3.434,2.365,4.854c2.048,2.831,4.987,4.708,8.504,5.432l0.052,0.012l0.05-0.012
		c3.517-0.724,6.458-2.601,8.504-5.432c1.028-1.42,1.818-3.043,2.365-4.854c-0.155-0.009-0.313-0.123-0.457-0.256
		c-0.535,1.801-1.308,3.408-2.322,4.811c-1.568,2.164-3.682,3.752-6.187,4.662v-11.174h7.842c-0.048-0.309-0.047-0.851,0.086-1.172
		c-0.466-0.359-1.129-0.41-1.657-0.502c0.863-1.552,2.295-0.899,2.934-0.502c0.227-0.001,0.332,0.033,0.5,0.076
		c-0.149-0.382,0.152-0.66-0.339-1.112h-0.03h-9.335v-8.034h9.384v1.924l0.51-0.523V81.938z"/>
	<path fill="#16202C" d="M50.648,81.567c-0.281-0.259-0.577-0.523-0.679-0.588c-0.215-0.134-0.141-0.165-0.717-0.19
		c-0.578-0.025-1.812-0.092-1.812-0.092s-0.596-0.013-1.352,0.245c-0.755,0.259-1.153,0.56-1.454,0.744
		c-0.302,0.183-0.499,0.331-0.499,0.331s0.646,0.676,1.051,1.302c0,0,0.113-0.38,0.743-0.713v-1.039H50.648z"/>
	<path fill="#16202C" d="M71.656,81.686c-0.302-0.185-0.7-0.485-1.456-0.745c-0.755-0.257-1.351-0.244-1.351-0.244
		s-1.234,0.067-1.81,0.092c-0.578,0.024-0.504,0.055-0.72,0.189c-0.102,0.065-0.398,0.329-0.679,0.588h4.727v1.043
		c0.624,0.332,0.736,0.708,0.736,0.708c0.405-0.626,1.049-1.303,1.049-1.303S71.956,81.869,71.656,81.686"/>
	<path fill="#16202C" d="M38.166,76.197c0.951-0.333,1.67-0.098,2.261,0.056c0.591,0.152,0.927,0.083,0.927,0.083
		c1.321-0.309,0.694-1.724,0.694-1.724s-0.164,1.151-1.886,0.762c-1.727-0.39-2.146,0.883-2.146,0.883L38.166,76.197z
		 M40.501,80.813l-1.184-2.406c-0.265,0.108-0.553,0.247-0.873,0.418l0.299,0.6c0.137-0.074,0.275-0.146,0.418-0.216l0.111,0.229
		c-0.178,0.088-0.354,0.179-0.522,0.271c-0.279,0.158-0.554,0.325-0.818,0.496l-0.109,0.071l-0.495-0.786
		c-0.331,0.218-0.676,0.458-1.022,0.717l0.395,0.552c0.177-0.132,0.349-0.255,0.51-0.368l0.146,0.21
		c-0.191,0.132-0.395,0.28-0.606,0.44l-0.001,0.001c-0.246,0.186-0.495,0.384-0.738,0.584l-0.103,0.085l-0.567-0.743
		c-0.316,0.262-0.631,0.54-0.941,0.827l0.442,0.514c0.145-0.134,0.273-0.254,0.396-0.361l0.168,0.191
		c-0.122,0.109-0.252,0.226-0.396,0.363l0.001,0.001l-0.088,0.082l0,0l0,0.002c-0.223,0.208-0.446,0.43-0.66,0.657l-0.094,0.098
		l-0.63-0.679c-0.237,0.262-0.431,0.498-0.577,0.706l0.491,0.467c0.064-0.087,0.14-0.187,0.232-0.303l0.199,0.161
		c-0.1,0.124-0.179,0.228-0.245,0.319l1.16,1.108C36.083,83.715,38.084,81.87,40.501,80.813 M40.85,80.943l-0.126,0.052
		c-2.484,1.052-4.539,2.972-5.825,4.397l-0.088,0.097l-2.184-2.083l0.06-0.09c0.177-0.264,0.432-0.574,0.757-0.924l0.093-0.102
		l0.633,0.683c0.16-0.166,0.324-0.33,0.488-0.487l-0.607-0.707l0.088-0.083c0.374-0.353,0.758-0.692,1.143-1.008l0.103-0.083
		l0.568,0.743c0.181-0.148,0.363-0.294,0.545-0.433l-0.543-0.764l0.1-0.074c0.424-0.318,0.843-0.611,1.244-0.873l0.108-0.068
		l0.498,0.787c0.201-0.128,0.407-0.254,0.618-0.375l-0.413-0.831l0.107-0.057c0.419-0.23,0.785-0.405,1.119-0.536l0.11-0.043
		L40.85,80.943z M39.742,80.41l-0.107-0.23c-0.202,0.093-0.405,0.194-0.607,0.301l-0.223-0.384l-0.221,0.128l0.219,0.38
		c-0.321,0.176-0.64,0.371-0.96,0.582l-0.229-0.344L37.4,80.985l0.229,0.344c-0.292,0.199-0.581,0.412-0.872,0.636l-0.251-0.328
		l-0.203,0.156l0.253,0.329c-0.288,0.233-0.574,0.477-0.858,0.73l-0.311-0.337l-0.187,0.174l0.309,0.333
		c-0.24,0.223-0.478,0.453-0.714,0.69l-0.246-0.245l-0.18,0.182l0.247,0.246c-0.092,0.095-0.184,0.19-0.276,0.288l0.188,0.175
		c0.228-0.244,0.458-0.479,0.692-0.707l0.257,0.276l0.186-0.174l-0.26-0.28c0.256-0.244,0.515-0.478,0.774-0.703l0.234,0.303
		l0.203-0.156l-0.242-0.312c0.656-0.551,1.322-1.036,1.988-1.448l0.203,0.346l0.22-0.13l-0.203-0.348
		C38.968,80.795,39.356,80.589,39.742,80.41 M35.243,74.149c0.961,1.304,1.864-0.131,1.864-0.131l0.009-0.017
		c0,0-0.3,0.068-0.452-0.015c-0.614-0.338-0.996-0.124-1.091-0.062C35.479,73.988,35.243,74.149,35.243,74.149 M34.168,83.345
		l-0.333-0.357c-0.76-1.17-0.859-2.304-0.859-2.304s-0.208,0.594-0.654,0.908c0,0-0.537-0.907-0.353-2.248
		c0,0,0.097-0.804,0.292-1.165c0,0-0.435,0.091-0.737-0.143c0,0,0.191-1.384,0.609-2.071c0.419-0.685,1.035-1.014,1.035-1.014
		s-1.321,0.077-2.204-1.038c0,0-0.414-0.559-0.395-0.954c0,0,0.305,0.242,1.127,0.237c0,0-0.969-0.291-1.437-1.086
		c-0.468-0.796-0.291-1.82-0.215-2c0,0,1.612,1.98,4.101,2.293c0,0-0.652-0.265-1.018-0.618c0,0,0.031-1.724,0.978-2.047
		c0,0-0.183,0.511,0.188,1.118c0,0,0.3,0.552,1.029,1.36c0,0,0.182,0.188,0.23,0.323c0,0,0.681-0.006,1.058-0.083
		c0.378-0.076,0.872-0.285,1.248-0.181c0,0,0.455,0.119,0.651,0.572c0,0,1.367-0.561,1.995,0.475
		c0.461,0.763,0.109,1.567,0.109,1.567s-0.078-0.529-0.854-0.646c0,0-0.489-0.106-0.833,0.318c0,0-0.455,0.662-0.931,0.86
		c0,0-0.163,0.06-0.363,0.114c-0.2,0.052-0.516,0.196-0.707,0.352c0,0-0.361,0.272-0.541,0.571c0,0-0.08,0.126-0.093,0.162
		c0,0,0.323-0.114,0.973,0c0.649,0.115,0.745,0.186,1.012,0.228c0.268,0.041,0.574,0.096,0.795,0.021c0,0,0.335-0.084,0.655-0.387
		c0,0,0.133,1.107-0.752,1.5c0,0-0.464,0.253-1.395,0.011c0,0-0.413-0.12-0.49-0.155c0,0-0.77,0.334-1.218,0.331
		c-0.448-0.006-0.856-0.072-1.245-0.58c0,0-0.279-0.408-0.194-0.851c0,0,0.039-0.233,0.065-0.277c0,0-0.45,0.452-0.17,1.347
		c0,0,0.265,0.879,1.491,0.816c0,0,0.271-0.005,0.698-0.108c0,0,1.328,0.44,2.43,1.092c-0.067,0.036-0.133,0.071-0.198,0.105
		c-0.279,0.158-0.554,0.325-0.818,0.496l-0.109,0.071l-0.495-0.786c-0.331,0.218-0.676,0.458-1.022,0.717l0.395,0.552
		c0.177-0.132,0.349-0.255,0.51-0.368l0.146,0.21c-0.191,0.132-0.395,0.28-0.606,0.44l-0.001,0.001
		c-0.246,0.186-0.495,0.384-0.738,0.584l-0.103,0.085l-0.567-0.743c-0.316,0.262-0.631,0.54-0.941,0.827l0.442,0.514
		c0.145-0.134,0.273-0.254,0.396-0.361l0.168,0.191c-0.122,0.109-0.252,0.226-0.396,0.363l0.001,0.001l-0.088,0.082l0,0l0,0.002
		c-0.223,0.208-0.446,0.43-0.66,0.657L34.168,83.345z M34.168,112.786c0,0,0.013-1.485-0.676-1.853
		c-0.688-0.365-0.926,0.148-0.878,0.393c0.031,0.164,0.155,0.471,0.547,0.662c0.392,0.18,0.741,0.48,0.949,0.721L34.168,112.786z
		 M36.007,111.79c0,0,0.005-1.507-1.147-1.862c-0.441-0.133-0.335,0.988-0.047,1.07c0.172,0.051,0.712,0.18,1.107,0.678
		L36.007,111.79z M36.484,110.599c0,0,0.016-0.794-0.961-1.508c0,0-0.3-0.235-0.482,0.212c-0.182,0.448-0.052,0.523,0.078,0.552
		c0.13,0.028,0.95,0.249,1.285,0.646L36.484,110.599z M49.49,104.584c0,0-0.515-1.146-1.493-1.063c0,0-0.17,0.006-0.244,0.215
		c-0.073,0.207-0.106,0.416-0.091,0.646c0,0,0,0.08,0.12,0.041c0.113-0.037,0.709-0.176,1.623,0.125L49.49,104.584z M49.513,101.273
		c0,0-0.855-1.033-2.074-0.248c0,0-0.249,0.125-0.184,0.354c0.065,0.236,0.232,0.448,0.448,0.578c0,0,0.1,0.07,0.187-0.021
		c0.088-0.095,0.651-0.706,1.542-0.675L49.513,101.273z M47.479,99.27c0,0-1.018-0.866-1.986,0.217c0,0-0.198,0.211-0.066,0.377
		c0.132,0.163,0.29,0.313,0.648,0.403c0,0,0.127,0.038,0.155-0.026c0.026-0.066,0.299-0.661,1.152-0.938L47.479,99.27z
		 M45.897,98.627c0,0,0.899,0.227,1.373-0.674c0,0,0.2-0.379-0.203-0.579c0,0-0.153-0.072-0.375,0.027
		c-0.136,0.062-0.205,0.089-0.26,0.21c-0.046,0.099-0.105,0.608-0.457,0.941L45.897,98.627z M41.86,95.161
		c0,0,0.036-0.515,0.485-0.897c0,0,0.213-0.226,0.213-0.518c0-0.301-0.23-0.693-0.649-0.374c-0.439,0.329-0.133,1.56-0.114,1.608
		C41.812,95.029,41.86,95.161,41.86,95.161 M45.218,96.955c-0.376,0.579-1.082,0.766-1.082,0.766s0.91,0.583,1.703-0.25
		c0,0,0.048-0.045,0.071-0.186c0,0,0.083-0.389-0.131-0.529C45.778,96.756,45.469,96.566,45.218,96.955 M36.09,74.343
		c-0.173,0-0.317-0.141-0.317-0.316c0-0.083,0.033-0.155,0.083-0.21c0.128-0.024,0.295-0.024,0.499,0.036
		c0.033,0.051,0.051,0.109,0.051,0.174C36.406,74.202,36.265,74.343,36.09,74.343"/>
	<path fill="#16202C" d="M33.974,89.414c-0.076,0.028-0.153,0.042-0.23,0.042c-0.375,0-0.667-0.325-0.745-0.421
		c-0.085,0.051-0.357,0.185-0.661,0.185c-0.096,0-0.187-0.013-0.271-0.041c-0.396-0.126-0.61-0.58-0.668-0.717
		c-0.063,0.032-0.196,0.087-0.373,0.087c-0.148,0-0.296-0.04-0.435-0.115c-0.425-0.237-0.511-0.773-0.475-0.992
		c-0.018,0.002-0.039,0.003-0.064,0.003c-0.154,0-0.446-0.046-0.662-0.349c-0.275-0.388-0.183-0.782-0.116-0.935
		c-0.129-0.016-0.464-0.097-0.626-0.548c-0.167-0.464,0.064-0.787,0.157-0.889c-0.135-0.077-0.536-0.335-0.55-0.773
		c-0.015-0.473,0.202-0.845,0.405-1.036c-0.218-0.186-1.465-1.319-1.565-3.02c-0.001-0.009-0.002-0.086,0.011-0.133v-0.005
		l0.023-0.215l0.046,0.212c0.004,0.021,0.463,2.065,1.934,3.099l0.047,0.033l-0.051,0.027c-0.019,0.01-0.481,0.258-0.472,0.931
		c0.011,0.662,0.483,0.723,0.504,0.725l0.053,0.006l-0.027,0.047c-0.003,0.004-0.27,0.466-0.097,0.938
		c0.117,0.321,0.313,0.369,0.419,0.369c0.049,0,0.082-0.01,0.082-0.01l0.069-0.021l-0.026,0.068
		c-0.001,0.005-0.166,0.447,0.106,0.898c0.162,0.268,0.35,0.324,0.48,0.324c0.081,0,0.138-0.023,0.138-0.025l0.051-0.021
		l-0.003,0.057c0,0.004-0.017,0.424,0.314,0.749c0.201,0.197,0.41,0.238,0.551,0.238c0.144,0,0.247-0.041,0.285-0.059l0.036-0.018
		l0.012,0.041c0.001,0.004,0.16,0.481,0.542,0.573c0.366,0.091,0.677,0.021,0.856-0.185l0.032-0.039l0.025,0.043
		c0.002,0.006,0.249,0.428,0.636,0.428c0.395,0,0.634,0,0.938-0.536l0.039-0.067l0.025,0.074
		C34.678,88.447,34.884,89.065,33.974,89.414 M46.963,101.219c-0.37-0.152-0.9,0.212-0.9,0.212c0.471-0.657,0.2-0.942,0.2-0.942
		c-1.065,0.119-1.071-0.662-1.071-0.662c-0.447-0.031-0.594,0.293-0.653,0.57c-0.058,0.276-0.047,1.024,0.188,1.564
		c0.237,0.541-0.023,1.189-0.023,1.189c-1.697-0.869-3.149-0.748-3.149-0.748l0.225-0.895c-0.671-0.972-0.554-1.331-0.554-1.331
		c0.966,1.38,2.013,1.272,2.013,1.272l0.101-0.022h0.008c-0.88-0.368-1-2.728-1.952-3.755c-0.219-0.238-0.435-0.365-0.635-0.492
		l-0.082-0.047c-0.647-0.389-1.588-0.537-1.588-0.537c-2.566-0.518-2.709-1.93-2.709-1.93l0.004-0.012
		c0.93-1.354,3.117-2.842,3.117-2.842c-0.178-0.197-0.472-0.949-0.472-0.949c-0.889,0.059-1.313-0.23-1.313-0.23
		c-1.247-0.776-0.813-1.801-0.813-1.801c0.012,0.117,0.243,1.066,1.09,1.397c0.846,0.327,1.382-0.054,1.382-0.054
		s-0.075,0.105,0.16,0.723c0.234,0.618,1.165,1.754,1.165,1.754c0.858-0.84,0.576-2.249,0.576-2.249
		c0.336,0.307,2.359,2.05,2.359,2.05c-0.132-0.002-1.035,0.104-1.035,0.104c-0.761,0.145-0.511,0.601-0.511,0.601
		c0.201-0.104,0.451-0.11,0.606,0.196c0.154,0.302,0.001,0.723,0.001,0.723c0.207,0.288,0.398,0.194,0.736-0.088
		c0.337-0.279,0.923-0.18,1.072-0.128c0.145,0.052,0.149,0.187,0.196,0.281c0.048,0.097,0.217,0.274,0.217,0.274
		c0.146,0.191,0.077,0.307,0.077,0.307c-0.124,0.326-0.118,0.621-0.118,0.621s-0.187,0.189-0.22,0.415
		c-0.031,0.228,0.1,0.444,0.319,0.71c0.22,0.262,0.515,0.084,0.515,0.084c0.066-0.034,0.324-0.225,0.532,0.008
		c0.258,0.291,0.039,0.742,0.039,0.742c0.181,0.163,0.464-0.041,0.526-0.075c0.06-0.036,0.312-0.249,0.573-0.183
		c0.262,0.066,0.296,0.539,0.296,0.539c0.375-0.173,0.516-0.482,0.516-0.482c0.318-0.625-0.143-1.508-0.284-1.702
		c-0.142-0.196-0.247-0.282-0.318-0.466c-0.07-0.188-0.201-0.615-0.326-0.998c-0.175-0.539-1.033-1.342-1.236-1.556
		c-0.203-0.211-1.323-1.024-1.95-2.293c-0.627-1.272-1.855-2.499-1.855-2.499c1.545-0.124,2.216,0.811,2.216,0.811
		c0.771-2.084-0.399-3.563-0.399-3.563c1.077,0.313,1.259,1.772,1.259,1.772s0.606-1.037,0.212-2.113
		c-0.394-1.076-2.166-1.531-2.166-1.531c0.713-0.143,1.272,0.057,1.272,0.057c-0.813-1.227-2.321-1.785-2.612-1.888
		c-0.292-0.104-0.886-0.252-1.049-0.292c-0.059-0.015-0.175-0.08-0.302-0.159l0.065,0.131c-2.284,1-4.197,2.703-5.488,4.077
		c-0.061,0.296-0.184,0.624-0.184,0.624c-0.741,1.818-2.225,1.184-2.753,0.972c-0.53-0.213-1.959-1.572-1.289-2.86
		c0.67-1.29,0.477-2.044,0.318-2.632c-0.156-0.573-1.377-2.524-1.377-2.524c-3.001-4.749-2.806-8.356-2.806-8.356
		c-0.626,0.372-0.85,0.965-0.85,0.965c-0.494,1.089-0.355,2.796-0.355,2.796c-0.079-0.118-0.746-1.098-1.268-2.367
		c-0.521-1.269-0.495-2.299-0.495-2.299c-0.553,0.552-0.835,1.566-0.835,1.566c-0.848,2.683,0.459,5.565,0.459,5.565
		c-1.812-1.447-1.931-2.989-1.931-2.989c-1.459,2.648,1.543,5.944,1.543,5.944c-1.827-0.2-2.367-0.884-2.367-0.884
		c-0.118,3.178,3.425,3.884,3.425,3.884c-1.754,0.294-3.318-0.142-3.318-0.142c0.216,0.679,0.835,1.566,0.835,1.566
		c1.494,2.054,3.648,2.26,3.648,2.26c-1.408,0.829-2.975,0.973-2.975,0.973c0.062,0.188,0.594,1.193,1.766,1.524
		c1.174,0.33,2.619-0.099,2.619-0.099c-0.299,0.172-0.621,0.457-1.053,0.91c-0.432,0.448-0.593,0.681-0.593,0.681
		c0.204,0.238,0.598,0.431,0.598,0.431c1.01,0.529,2.084,0.206,2.084,0.206c-0.359,1.482,0.072,2.229,0.072,2.229
		c1.188,0.232,2.08-0.354,2.08-0.354c0.005,1.021,0.398,1.49,0.398,1.49c1.254-0.121,2.063-1.202,2.063-1.202
		c0.139,0.72,0.588,1.403,0.588,1.403c1.469-0.471,1.575-2.129,1.575-2.129c0.437,2.102-1.619,2.688-1.619,2.688
		c-0.595-0.443-0.743-1.131-0.743-1.131s-0.223,0.238-0.695,0.467c-0.47,0.227-1.019,0.262-1.019,0.262
		c-0.207,0.32-0.544,1.067-0.544,1.067c-0.425,0.881-1.039,3.304-1.039,3.304c-0.441,1.618-1.263,2.921-1.263,2.921
		c-0.792,1.165-1.588,1.019-1.588,1.019c-1.016-0.178-1.323-1.227-1.349-2.389c-0.027-1.164,0.563-2.547,0.563-2.547
		c0.697-1.562,0.865-2.5,0.865-2.5c0.393-1.584-0.623-2.76-0.623-2.76c-0.939-1.133-2.391-1.101-2.391-1.101
		c-0.46-0.006-0.877,0.087-1.25,0.289c-0.373,0.203-0.605,0.47-0.724,0.621c-0.117,0.153-0.319,0.413-0.448,0.511
		c-0.173,0.13-0.292,0.18-0.292,0.18C20.227,93.045,20,92.94,20,92.94c0.09,0.217,0.287,0.403,0.287,0.403
		c0.304,0.289,0.831,0.432,0.831,0.432s-0.14,0.226-0.241,0.496c-0.101,0.268-0.078,0.537-0.01,0.721
		c0.065,0.184,0.298,0.407,0.298,0.407c0.282,0.231,0.148,0.611,0.148,0.611c-0.168,0.558-0.616,0.633-0.616,0.633
		c0.269,0.343,0.692,0.398,0.692,0.398c-0.009,0.288,0.027,0.599,0.027,0.599c0.141,1.213,0.791,1.449,0.791,1.449
		c-0.065-0.201-0.026-0.578,0.08-0.908c0.104-0.328,0.385-1.142,0.385-1.142c0.308-0.89,0.249-1.8,0.249-1.8l0.134,0.252
		c0.271,0.49,0.229,0.815,0.229,0.815c0.594-0.265,0.69-1.101,0.69-1.101c0.213-1.566-0.723-1.883-0.723-1.883
		c0.004-0.308,0.487-0.777,1.023-0.354c0.688,0.541,0.682,1.143,0.638,1.74c-0.054,0.699-1.072,3.261-1.072,3.261
		c-0.725,2.009-0.512,3.112-0.512,3.112c0.113,0.92,0.837,2.555,2.007,2.952c1.169,0.397,2.277,0.026,3.12-0.736
		c0.844-0.765,1.51-2.536,1.567-2.685c0.059-0.148,0.133-0.355,0.133-0.355c-0.147,0.591,0.079,1.849,0.131,2.346
		c0.053,0.503-0.345,1.18-0.732,1.402c-0.386,0.229-0.843,0.134-0.843,0.134c0.122,0.245,0.155,0.513,0.155,0.513
		c0.138,0.787-0.266,1.402-0.451,1.616c-0.052,0.06-0.188,0.184-0.188,0.184c-0.082,0.085-0.434,0.378-0.573,1.083
		c-0.145,0.746,0.346,1.379,0.346,1.379c-0.065-0.857,0.418-1.566,0.418-1.566c0.126,0.473-0.065,0.414-0.069,1.516
		c-0.004,1.101,0.572,1.617,0.572,1.617c-0.029-1.359,0.615-1.463,0.615-1.463c-0.062,0.229-0.207,1.106,0.122,1.966
		c0.329,0.862,1.013,1.065,1.013,1.065c-0.013-0.16,0-1.492,0.036-1.323c0.037,0.166,0.308,0.653,0.308,0.653
		c0.085,0.14,0.647,1.008,1.155,0.932c0.359-0.055,0.478-0.255,0.515-0.348l-0.013-0.027c-0.179-0.325-0.199-0.54-0.199-0.54
		c-0.097-0.958,0.657-1.018,1.211-0.561c0.61,0.503,0.813,0.177,0.813,0.177c-0.681-1.207,0.211-1.27,0.211-1.27
		c-0.019-1.017,0.512-0.865,0.512-0.865c-0.027-0.257-0.291-0.486-0.75-0.506c-0.446-0.016-1.35,0.586-1.511,0.664
		c-0.158,0.077-0.411-0.215-0.411-0.215c-0.683-0.906-0.564-2.084-0.564-2.084c0.647-0.82,0.989-1.766,0.989-1.766
		c-0.564-0.785-0.412-1.67-0.412-1.67c0.799,2.049,1.764,1.836,1.764,1.836c-0.4-1.929,0.424-3.448,0.741-4.025
		c0.199-0.359-0.083-1.145-0.293-1.665c0,0-0.405-0.952-0.488-1.323c-0.083-0.371-0.156-0.928,0.398-1.636l-0.007,0.052
		c-0.029,0.219-0.03,0.464,0.024,0.908c0.053,0.445,0.292,1.039,0.46,1.351c0.168,0.315,0.313,0.528,0.313,0.528
		c1.866,0.829,3.361,0.979,3.361,0.979c0.212,0.7-0.019,2.246-0.084,2.637c-0.063,0.389-0.116,0.901-0.116,0.901
		c-0.024,0.288,0.005,1.082,0.47,1.135c0.464,0.055,0.83,0.371,1.047,0.971c0.218,0.602,0.717,0.824,0.717,0.824
		c-0.157-0.324-0.01-0.678-0.01-0.678c0.464,1.325,2.724,1.219,2.724,1.219c-0.418-0.365-0.589-0.895-0.589-0.895
		c1.266,1.201,2.596,0.176,2.596,0.176c-0.531-0.265-0.659-0.834-0.659-0.834c1.718,0.98,2.254-0.591,2.254-0.591
		c-0.459-0.08-0.542-0.452-0.542-0.452c0.612,0.188,0.759-0.111,0.759-0.111c-0.282-0.688,0.166-1.029,0.166-1.029
		c0.829-0.771,0.376-1.355,0.376-1.355C46.952,102.327,46.963,101.219,46.963,101.219"/>
	<path fill="#16202C" d="M78.274,76.257c0,0-0.419-1.273-2.144-0.883c-1.725,0.389-1.888-0.762-1.888-0.762
		s-0.628,1.414,0.693,1.723c0,0,0.336,0.069,0.927-0.083c0.591-0.153,1.31-0.389,2.26-0.056L78.274,76.257z M81.492,85.125
		l1.16-1.108c-0.066-0.091-0.146-0.196-0.246-0.319l0.2-0.161c0.092,0.116,0.167,0.216,0.232,0.303l0.492-0.467
		c-0.148-0.208-0.341-0.444-0.579-0.706l-0.631,0.679l-0.093-0.098c-0.215-0.228-0.436-0.449-0.659-0.657l-0.001-0.002l0,0
		l-0.089-0.083l0,0c-0.144-0.138-0.273-0.254-0.396-0.364l0.169-0.192c0.123,0.107,0.25,0.227,0.395,0.362l0.442-0.515
		c-0.31-0.287-0.625-0.566-0.941-0.827l-0.567,0.743l-0.101-0.085c-0.245-0.2-0.493-0.398-0.739-0.584l0-0.001
		c-0.212-0.16-0.415-0.308-0.606-0.439l0.146-0.211c0.161,0.114,0.333,0.237,0.509,0.369l0.395-0.554
		c-0.348-0.257-0.69-0.498-1.021-0.716l-0.498,0.786l-0.108-0.071c-0.264-0.171-0.539-0.339-0.818-0.496
		c-0.168-0.093-0.345-0.184-0.523-0.271l0.112-0.23c0.143,0.069,0.282,0.142,0.418,0.216l0.299-0.6
		c-0.321-0.172-0.607-0.311-0.873-0.418l-1.184,2.406C78.204,81.87,80.205,83.715,81.492,85.125 M76.847,78.082l0.109,0.043
		c0.333,0.131,0.699,0.306,1.119,0.536l0.107,0.057l-0.414,0.831c0.21,0.121,0.417,0.247,0.619,0.375l0.496-0.787l0.109,0.068
		c0.401,0.261,0.82,0.554,1.245,0.873l0.099,0.074l-0.544,0.764c0.182,0.14,0.366,0.285,0.546,0.433l0.568-0.743l0.102,0.083
		c0.384,0.316,0.769,0.655,1.142,1.008l0.09,0.083l-0.61,0.707c0.166,0.157,0.328,0.321,0.489,0.487l0.632-0.683l0.095,0.102
		c0.323,0.351,0.578,0.66,0.757,0.924l0.059,0.09l-2.184,2.083l-0.087-0.097c-1.286-1.425-3.341-3.346-5.826-4.397l-0.124-0.052
		L76.847,78.082z M77.709,81.026l-0.204,0.348l0.22,0.13l0.203-0.346c0.666,0.412,1.331,0.896,1.988,1.447l-0.241,0.313l0.203,0.156
		l0.233-0.303c0.26,0.225,0.518,0.459,0.774,0.703l-0.261,0.28l0.187,0.174l0.257-0.276c0.232,0.227,0.463,0.463,0.692,0.707
		l0.187-0.175c-0.091-0.097-0.184-0.193-0.275-0.288l0.246-0.246l-0.178-0.182l-0.248,0.245c-0.236-0.237-0.474-0.467-0.714-0.69
		l0.31-0.333L80.9,82.515l-0.311,0.336c-0.283-0.253-0.57-0.497-0.858-0.73l0.254-0.329l-0.204-0.156l-0.25,0.328
		c-0.29-0.225-0.58-0.437-0.872-0.637l0.229-0.344l-0.213-0.141l-0.229,0.344c-0.32-0.211-0.641-0.406-0.962-0.582l0.22-0.38
		l-0.22-0.128l-0.222,0.384c-0.204-0.107-0.406-0.208-0.609-0.301l-0.107,0.23C76.934,80.589,77.319,80.795,77.709,81.026
		 M80.717,73.925c-0.096-0.062-0.479-0.276-1.092,0.062c-0.152,0.083-0.453,0.015-0.453,0.015l0.012,0.017
		c0,0,0.902,1.435,1.863,0.132C81.046,74.15,80.809,73.988,80.717,73.925 M82.027,83.247c-0.215-0.228-0.436-0.449-0.659-0.657
		l-0.001-0.002l0,0l-0.089-0.083l0,0c-0.144-0.138-0.273-0.254-0.396-0.364l0.169-0.192c0.123,0.107,0.25,0.227,0.395,0.362
		l0.442-0.515c-0.31-0.287-0.625-0.566-0.941-0.827l-0.567,0.743l-0.101-0.085c-0.245-0.2-0.493-0.398-0.739-0.584l0-0.001
		c-0.212-0.16-0.415-0.308-0.606-0.439l0.146-0.211c0.161,0.114,0.333,0.237,0.509,0.369l0.395-0.554
		c-0.348-0.257-0.69-0.498-1.021-0.716l-0.498,0.786l-0.108-0.071c-0.264-0.171-0.539-0.339-0.818-0.496
		c-0.065-0.035-0.131-0.07-0.198-0.105c1.102-0.651,2.429-1.092,2.429-1.092c0.427,0.103,0.698,0.108,0.698,0.108
		c1.227,0.062,1.491-0.816,1.491-0.816c0.281-0.895-0.169-1.347-0.169-1.347c0.026,0.043,0.065,0.277,0.065,0.277
		c0.084,0.443-0.195,0.851-0.195,0.851c-0.389,0.508-0.796,0.574-1.246,0.58c-0.446,0.003-1.217-0.331-1.217-0.331
		c-0.077,0.036-0.49,0.155-0.49,0.155c-0.931,0.242-1.395-0.011-1.395-0.011c-0.883-0.393-0.752-1.5-0.752-1.5
		c0.322,0.302,0.656,0.387,0.656,0.387c0.221,0.076,0.527,0.021,0.795-0.021c0.267-0.042,0.361-0.113,1.011-0.228
		c0.651-0.115,0.973,0,0.973,0c-0.014-0.036-0.093-0.162-0.093-0.162c-0.18-0.299-0.541-0.571-0.541-0.571
		c-0.192-0.156-0.508-0.3-0.708-0.352c-0.2-0.054-0.361-0.114-0.361-0.114c-0.477-0.199-0.933-0.86-0.933-0.86
		c-0.344-0.424-0.832-0.318-0.832-0.318c-0.777,0.117-0.853,0.646-0.853,0.646s-0.354-0.804,0.109-1.567
		c0.627-1.036,1.994-0.475,1.994-0.475c0.196-0.453,0.65-0.573,0.65-0.573c0.377-0.103,0.872,0.106,1.249,0.182
		c0.377,0.077,1.059,0.083,1.059,0.083c0.046-0.135,0.229-0.323,0.229-0.323c0.731-0.807,1.032-1.359,1.032-1.359
		c0.369-0.607,0.188-1.118,0.188-1.118c0.947,0.323,0.977,2.047,0.977,2.047c-0.367,0.354-1.02,0.618-1.02,0.618
		c2.491-0.313,4.102-2.293,4.102-2.293c0.076,0.18,0.252,1.204-0.215,2c-0.467,0.796-1.436,1.086-1.436,1.086
		c0.821,0.004,1.127-0.237,1.127-0.237c0.019,0.395-0.396,0.954-0.396,0.954c-0.882,1.115-2.204,1.038-2.204,1.038
		s0.618,0.329,1.036,1.014c0.418,0.687,0.608,2.071,0.608,2.071c-0.304,0.234-0.735,0.143-0.735,0.143
		c0.194,0.361,0.29,1.165,0.29,1.165c0.186,1.341-0.352,2.249-0.352,2.249c-0.445-0.315-0.654-0.909-0.654-0.909
		s-0.099,1.134-0.86,2.304l-0.333,0.357L82.027,83.247z M82.18,112.709c0.207-0.24,0.554-0.541,0.948-0.721
		c0.393-0.191,0.516-0.498,0.547-0.662c0.049-0.244-0.189-0.758-0.878-0.393c-0.688,0.367-0.676,1.853-0.676,1.853L82.18,112.709z
		 M80.371,111.676c0.394-0.498,0.935-0.627,1.106-0.678c0.289-0.082,0.394-1.203-0.047-1.069c-1.152,0.354-1.148,1.861-1.148,1.861
		L80.371,111.676z M79.886,110.5c0.334-0.396,1.154-0.617,1.285-0.646s0.26-0.104,0.079-0.552c-0.183-0.447-0.484-0.212-0.484-0.212
		c-0.976,0.714-0.962,1.508-0.962,1.508L79.886,110.5z M66.883,104.549c0.915-0.301,1.511-0.162,1.624-0.125
		c0.118,0.04,0.119-0.041,0.119-0.041c0.017-0.23-0.016-0.439-0.092-0.646c-0.072-0.209-0.241-0.215-0.241-0.215
		c-0.977-0.084-1.494,1.063-1.494,1.063L66.883,104.549z M66.856,101.262c0.892-0.031,1.455,0.58,1.543,0.675
		c0.086,0.091,0.187,0.021,0.187,0.021c0.216-0.13,0.382-0.342,0.447-0.577c0.066-0.229-0.182-0.356-0.182-0.356
		c-1.221-0.783-2.076,0.25-2.076,0.25L66.856,101.262z M68.908,99.303c0.853,0.276,1.126,0.871,1.153,0.938
		c0.027,0.064,0.154,0.026,0.154,0.026c0.359-0.091,0.517-0.241,0.648-0.403c0.133-0.166-0.064-0.377-0.064-0.377
		c-0.968-1.083-1.986-0.217-1.986-0.217L68.908,99.303z M70.313,98.556c-0.353-0.336-0.41-0.846-0.455-0.944
		c-0.057-0.121-0.125-0.148-0.262-0.21c-0.221-0.1-0.375-0.027-0.375-0.027c-0.403,0.202-0.203,0.579-0.203,0.579
		c0.475,0.9,1.373,0.674,1.373,0.674L70.313,98.556z M74.495,94.98c0.018-0.049,0.324-1.279-0.115-1.608
		c-0.417-0.319-0.648,0.073-0.648,0.374c0,0.292,0.211,0.518,0.211,0.518c0.451,0.382,0.485,0.897,0.485,0.897
		S74.478,95.029,74.495,94.98 M70.51,96.756c-0.213,0.141-0.132,0.529-0.132,0.529c0.024,0.141,0.073,0.186,0.073,0.186
		c0.792,0.833,1.703,0.25,1.703,0.25s-0.705-0.187-1.082-0.766C70.82,96.566,70.51,96.756,70.51,96.756 M79.883,74.026
		c0-0.065,0.019-0.123,0.052-0.174c0.203-0.06,0.371-0.06,0.498-0.036c0.051,0.056,0.083,0.127,0.083,0.21
		c0,0.175-0.143,0.316-0.318,0.316C80.023,74.343,79.883,74.202,79.883,74.026"/>
	<path fill="#16202C" d="M81.613,88.441l0.026-0.074l0.039,0.067c0.303,0.536,0.542,0.536,0.939,0.536
		c0.384,0,0.631-0.422,0.633-0.428l0.024-0.043l0.032,0.039c0.179,0.205,0.49,0.275,0.858,0.185c0.382-0.092,0.54-0.569,0.54-0.573
		l0.013-0.039l0.037,0.016c0.039,0.018,0.141,0.059,0.286,0.059c0.14,0,0.349-0.041,0.549-0.238
		c0.332-0.325,0.316-0.745,0.316-0.749l-0.004-0.056l0.051,0.02c0,0.002,0.057,0.025,0.139,0.025c0.128,0,0.316-0.057,0.478-0.324
		c0.273-0.452,0.108-0.894,0.106-0.898l-0.026-0.068l0.07,0.021c0,0,0.034,0.01,0.082,0.01c0.108,0,0.303-0.048,0.421-0.369
		c0.172-0.472-0.095-0.934-0.098-0.938l-0.028-0.047l0.054-0.006c0.02-0.002,0.494-0.063,0.505-0.725
		c0.011-0.674-0.452-0.921-0.474-0.931l-0.051-0.027l0.047-0.033c1.472-1.034,1.927-3.078,1.932-3.099l0.051-0.212l0.024,0.215
		v0.005c0.012,0.046,0.011,0.124,0.011,0.134c-0.105,1.7-1.349,2.834-1.568,3.02c0.202,0.191,0.42,0.563,0.404,1.035
		c-0.014,0.438-0.415,0.697-0.55,0.774c0.09,0.103,0.323,0.426,0.158,0.889c-0.163,0.451-0.498,0.534-0.627,0.547
		c0.068,0.154,0.159,0.548-0.115,0.936c-0.215,0.303-0.508,0.349-0.663,0.349c-0.024,0-0.044-0.001-0.062-0.003
		c0.035,0.219-0.051,0.755-0.476,0.992c-0.141,0.076-0.289,0.115-0.437,0.115c-0.176,0-0.311-0.055-0.372-0.087
		c-0.057,0.137-0.272,0.591-0.667,0.717c-0.083,0.028-0.176,0.041-0.271,0.041c-0.304,0-0.576-0.134-0.661-0.183
		c-0.078,0.096-0.369,0.419-0.745,0.419c-0.077,0-0.155-0.014-0.229-0.042C81.405,89.065,81.61,88.447,81.613,88.441
		 M68.349,102.225c0,0-0.453,0.584,0.377,1.355c0,0,0.446,0.342,0.166,1.029c0,0,0.146,0.299,0.758,0.11
		c0,0-0.083,0.373-0.541,0.453c0,0,0.535,1.573,2.253,0.591c0,0-0.128,0.569-0.658,0.834c0,0,1.329,1.025,2.594-0.176
		c0,0-0.171,0.529-0.588,0.895c0,0,2.26,0.106,2.724-1.219c0,0,0.147,0.354-0.01,0.678c0,0,0.5-0.223,0.717-0.824
		c0.219-0.6,0.583-0.916,1.046-0.971c0.468-0.053,0.495-0.847,0.473-1.135c0,0-0.054-0.513-0.119-0.901
		c-0.063-0.391-0.293-1.937-0.081-2.637c0,0,1.492-0.15,3.358-0.979c0,0,0.146-0.213,0.314-0.528
		c0.167-0.312,0.408-0.905,0.461-1.35c0.053-0.443,0.052-0.69,0.024-0.909l-0.008-0.052c0.554,0.71,0.481,1.265,0.399,1.637
		c-0.082,0.37-0.488,1.322-0.488,1.322c-0.211,0.521-0.494,1.306-0.295,1.667c0.318,0.575,1.142,2.095,0.742,4.023
		c0,0,0.964,0.213,1.766-1.836c0,0,0.152,0.883-0.413,1.67c0,0,0.341,0.945,0.988,1.766c0,0,0.119,1.176-0.563,2.084
		c0,0-0.254,0.292-0.412,0.215c-0.16-0.078-1.065-0.681-1.509-0.664c-0.46,0.02-0.725,0.249-0.75,0.506c0,0,0.528-0.152,0.51,0.864
		c0,0,0.893,0.063,0.212,1.271c0,0,0.202,0.326,0.812-0.177c0.554-0.457,1.307-0.397,1.21,0.561c0,0-0.02,0.215-0.2,0.54
		l-0.011,0.027c0.036,0.093,0.155,0.294,0.513,0.348c0.51,0.076,1.071-0.792,1.158-0.932c0,0,0.27-0.487,0.305-0.652
		c0.038-0.17,0.049,1.162,0.038,1.322c0,0,0.685-0.203,1.013-1.064c0.33-0.86,0.185-1.737,0.122-1.967c0,0,0.644,0.104,0.613,1.463
		c0,0,0.575-0.517,0.573-1.617c-0.004-1.102-0.195-1.045-0.066-1.516c0,0,0.48,0.709,0.417,1.566c0,0,0.491-0.633,0.344-1.379
		c-0.137-0.705-0.492-0.998-0.571-1.084c0,0-0.138-0.123-0.186-0.184c-0.188-0.213-0.592-0.828-0.453-1.615
		c0,0,0.033-0.268,0.152-0.513c0,0-0.454,0.095-0.841-0.134c-0.386-0.223-0.784-0.898-0.733-1.402
		c0.051-0.496,0.278-1.755,0.132-2.346c0,0,0.074,0.207,0.131,0.355c0.059,0.148,0.727,1.92,1.57,2.685
		c0.841,0.763,1.954,1.134,3.115,0.736c1.174-0.397,1.896-2.033,2.013-2.951c0,0,0.212-1.104-0.516-3.113
		c0,0-1.012-2.562-1.072-3.261c-0.047-0.596-0.051-1.199,0.638-1.74c0.536-0.424,1.019,0.044,1.023,0.354
		c0,0-0.936,0.316-0.725,1.883c0,0,0.097,0.836,0.691,1.101c0,0-0.039-0.325,0.23-0.815l0.136-0.252c0,0-0.062,0.91,0.245,1.8
		c0,0,0.281,0.813,0.386,1.141c0.105,0.331,0.145,0.708,0.078,0.911c0,0,0.652-0.238,0.793-1.451c0,0,0.035-0.311,0.027-0.599
		c0,0,0.421-0.056,0.69-0.398c0,0-0.447-0.075-0.617-0.632c0,0-0.135-0.381,0.149-0.612c0,0,0.234-0.224,0.299-0.407
		c0.066-0.184,0.09-0.453-0.012-0.721c-0.101-0.271-0.242-0.496-0.242-0.496s0.527-0.143,0.831-0.432c0,0,0.2-0.187,0.288-0.404
		c0,0-0.226,0.105-0.479,0.004c0,0-0.119-0.05-0.292-0.18c-0.128-0.098-0.331-0.357-0.448-0.511
		c-0.117-0.151-0.35-0.419-0.723-0.621s-0.789-0.295-1.251-0.289c0,0-1.449-0.03-2.4,1.101c0,0-1.012,1.176-0.622,2.762
		c0,0,0.187,0.937,0.87,2.498c0,0,0.592,1.381,0.569,2.547c-0.025,1.162-0.334,2.211-1.35,2.391c0,0-0.792,0.145-1.588-1.021
		c0,0-0.823-1.303-1.262-2.921c0,0-0.615-2.423-1.039-3.305c0,0-0.338-0.746-0.545-1.066c0,0-0.55-0.035-1.021-0.262
		c-0.471-0.229-0.692-0.467-0.692-0.467s-0.152,0.688-0.744,1.131c0,0-2.057-0.586-1.618-2.688c0,0,0.104,1.658,1.574,2.129
		c0,0,0.449-0.683,0.588-1.403c0,0,0.809,1.081,2.063,1.202c0,0,0.392-0.469,0.396-1.491c0,0,0.893,0.587,2.08,0.356
		c0,0,0.433-0.749,0.073-2.231c0,0,1.069,0.323,2.077-0.206c0,0,0.396-0.192,0.604-0.431c0,0-0.163-0.232-0.599-0.681
		c-0.435-0.453-0.745-0.738-1.047-0.91c0,0,1.441,0.429,2.621,0.099c1.172-0.331,1.706-1.337,1.767-1.524
		c0,0-1.569-0.144-2.972-0.973c0,0,2.15-0.206,3.646-2.259c0,0,0.617-0.888,0.835-1.567c0,0-1.565,0.437-3.319,0.143
		c0,0,3.542-0.707,3.424-3.884c0,0-0.541,0.684-2.367,0.884c0,0,3.003-3.296,1.542-5.944c0,0-0.116,1.542-1.929,2.989
		c0,0,1.306-2.883,0.46-5.565c0,0-0.286-1.014-0.837-1.566c0,0,0.028,1.031-0.492,2.299c-0.526,1.27-1.183,2.25-1.272,2.368
		c0,0,0.132-1.707-0.347-2.795c0,0-0.229-0.594-0.852-0.966c0,0,0.192,3.607-2.809,8.356c0,0-1.224,1.952-1.378,2.524
		c-0.158,0.588-0.353,1.341,0.318,2.632c0.671,1.288-0.76,2.646-1.289,2.86c-0.53,0.211-2.013,0.847-2.754-0.972
		c0,0-0.123-0.327-0.184-0.624c-1.29-1.374-3.203-3.077-5.488-4.077l0.064-0.131c-0.124,0.08-0.243,0.145-0.301,0.159
		c-0.162,0.038-0.756,0.187-1.047,0.292c-0.291,0.104-1.799,0.662-2.614,1.888c0,0,0.56-0.2,1.273-0.057
		c0,0-1.771,0.454-2.166,1.531c-0.394,1.076,0.212,2.113,0.212,2.113s0.183-1.459,1.26-1.772c0,0-1.172,1.478-0.401,3.563
		c0,0,0.67-0.935,2.217-0.811c0,0-1.229,1.227-1.854,2.499c-0.627,1.269-1.749,2.082-1.952,2.293
		c-0.203,0.214-1.059,1.019-1.236,1.555c-0.125,0.384-0.255,0.811-0.326,0.997c-0.071,0.186-0.177,0.273-0.318,0.468
		s-0.6,1.079-0.283,1.704c0,0,0.139,0.308,0.515,0.48c0,0,0.035-0.473,0.298-0.539c0.26-0.066,0.511,0.147,0.573,0.183
		c0.061,0.034,0.344,0.237,0.526,0.075c0,0-0.221-0.451,0.039-0.742c0.208-0.232,0.464-0.042,0.532-0.008
		c0,0,0.293,0.18,0.513-0.086c0.22-0.264,0.352-0.48,0.319-0.706c-0.032-0.228-0.22-0.417-0.22-0.417s0.007-0.295-0.118-0.621
		c0,0-0.069-0.115,0.077-0.307c0,0,0.168-0.178,0.217-0.274c0.048-0.095,0.051-0.229,0.197-0.28
		c0.147-0.053,0.733-0.152,1.072,0.127c0.337,0.282,0.528,0.376,0.736,0.088c0,0-0.154-0.421,0.001-0.723
		c0.155-0.307,0.404-0.301,0.605-0.196c0,0,0.25-0.456-0.511-0.601c0,0-0.903-0.105-1.035-0.104c0,0,2.024-1.743,2.358-2.05
		c0,0-0.281,1.409,0.578,2.249c0,0,0.93-1.136,1.165-1.754c0.235-0.617,0.157-0.723,0.157-0.723s0.537,0.381,1.384,0.052
		s1.077-1.277,1.088-1.396c0,0,0.435,1.024-0.812,1.801c0,0-0.424,0.289-1.312,0.23c0,0-0.294,0.752-0.472,0.949
		c0,0,2.188,1.49,3.117,2.841l0.004,0.015c0,0-0.143,1.41-2.708,1.928c0,0-0.942,0.148-1.591,0.537l-0.08,0.047
		c-0.201,0.127-0.417,0.254-0.636,0.492c-0.951,1.027-1.072,3.387-1.952,3.755h0.008l0.101,0.022c0,0,1.046,0.107,2.013-1.272
		c0,0,0.117,0.359-0.554,1.331l0.223,0.895c0,0-1.451-0.123-3.148,0.748c0,0-0.259-0.648-0.024-1.189
		c0.236-0.54,0.248-1.288,0.188-1.564c-0.059-0.277-0.206-0.602-0.653-0.571c0,0-0.005,0.782-1.071,0.663
		c0,0-0.271,0.285,0.201,0.942c0,0-0.53-0.364-0.901-0.212C69.326,101.219,69.337,102.327,68.349,102.225"/>
	<path fill="#16202C" d="M55.371,55.782c1.597-0.742,4.32-0.614,5.621,0.015l0.736-0.803l0.759-2.374
		c-0.634-0.219-1.295-0.375-1.963-0.474l-0.25,1.088c-0.316-0.053-0.642-0.09-0.972-0.112v-1.106
		c-0.763-0.045-1.51-0.031-2.222,0.024v1.112c-0.369,0.03-0.719,0.07-1.039,0.111l-0.251-1.078c-0.718,0.105-1.369,0.25-1.911,0.404
		l0.771,2.403L55.371,55.782z"/>
	<path fill="#16202C" d="M83.311,66.755c-0.648,0.976-1.623,1.604-2.485,1.604c-2.233,0-2.786-1.047-3.368-2.153
		c-0.284-0.533-0.705-1.75-1.328-2.503c1.296-0.156,2.548-0.805,3.395-1.772c0.301-0.345,0.533-0.708,0.686-1.067
		c0.013,0.018,0.023,0.034,0.036,0.054c0.558,0.89,0.695,2.711,0.286,3.821l-0.322,0.87l0.919,0.102
		c0.162,0.018,0.329,0.026,0.489,0.026c0.854,0,1.672-0.246,2.334-0.667C83.89,65.622,83.673,66.206,83.311,66.755 M38.316,66.207
		c-0.584,1.105-1.137,2.153-3.367,2.153c-0.863,0-1.838-0.628-2.485-1.604c-0.365-0.549-0.582-1.133-0.641-1.685
		c0.662,0.421,1.479,0.667,2.331,0.667c0.164,0,0.329-0.008,0.49-0.026l0.921-0.102l-0.323-0.87
		c-0.408-1.11-0.274-2.931,0.287-3.821c0.01-0.02,0.022-0.036,0.033-0.054c0.155,0.359,0.386,0.722,0.688,1.067
		c0.848,0.967,2.097,1.616,3.394,1.772C39.021,64.457,38.599,65.673,38.316,66.207 M62.166,70.851
		c-0.196-0.226-0.645-0.926-0.645-0.926s0.279-0.059,0.589-0.072l0.002,0c0,0,0.933,0.009,1.271,0.613
		c0.004,0.004,0.005,0.008,0.008,0.012c0.041,0.131,0.044,0.296-0.014,0.508C63.191,71.666,62.363,71.078,62.166,70.851
		 M61.367,71.142c-0.315,0.139-0.949-0.137-1.2-0.727c-0.25-0.588-0.609-0.868-0.609-0.868s0.048-0.043,0.111-0.073
		c0.221-0.101,0.398-0.131,0.723-0.019c0.366,0.128,0.665,0.764,0.809,1.052c0.144,0.289,0.328,0.547,0.328,0.547L61.367,71.142z
		 M59.556,70.907c-0.305,0.173-0.979-0.034-1.3-0.605c-0.322-0.57-0.715-0.816-0.715-0.816s0.043-0.048,0.104-0.085
		c0.004-0.001,0.007-0.003,0.009-0.005c0.195-0.022,0.39-0.061,0.58-0.118c0.046,0.008,0.09,0.011,0.144,0.023
		c0.387,0.088,0.762,0.702,0.94,0.979c0.178,0.276,0.394,0.52,0.394,0.52L59.556,70.907z M57.739,70.809
		c-0.287,0.203-0.977,0.062-1.352-0.477c-0.374-0.538-0.792-0.744-0.792-0.744s0.04-0.051,0.096-0.094
		c0.114-0.083,0.22-0.136,0.351-0.164c0.188,0.038,0.392,0.064,0.598,0.082c0.322,0.177,0.636,0.588,0.801,0.797
		c0.204,0.257,0.443,0.479,0.443,0.479L57.739,70.809z M55.945,71.004c-0.3,0.211-1.018,0.062-1.409-0.497
		c-0.39-0.559-0.826-0.771-0.826-0.771s0.042-0.057,0.101-0.101c0.207-0.154,0.386-0.223,0.749-0.177
		c0.41,0.053,0.86,0.649,1.072,0.918c0.213,0.269,0.461,0.499,0.461,0.499L55.945,71.004z M53.977,71.098
		c-0.626,0.271-1.759,0.029-1.894-0.55c0.054-0.046,0.097-0.09,0.114-0.119c0.239,0.125,0.408,0.014,0.561-0.027
		c-0.056-0.143-0.078-0.335-0.002-0.454c0.031-0.005,0.062-0.018,0.093-0.025c0.606,0.238,1.327,1.056,1.327,1.056L53.977,71.098z
		 M50.955,70.087l0.001,0.002c-0.005-0.011-0.011-0.021-0.016-0.032c-0.004-0.007-0.008-0.012-0.011-0.02
		c-0.086-0.186-0.017-0.419,0.066-0.452c0.103-0.037,0.207,0.021,0.261,0.12c0,0.001-0.002,0.002-0.002,0.004
		c0.011,0.199,0.117,0.484,0.2,0.627c0.001,0.003,0.003,0.006,0.005,0.009c0.02,0.032,0.039,0.059,0.053,0.071v0
		C51.3,70.427,51.066,70.283,50.955,70.087 M51.527,70.078c-0.025-0.039-0.047-0.082-0.065-0.126
		c-0.039-0.094-0.067-0.197-0.079-0.301l-0.001,0.002c-0.001-0.138,0.098-0.204,0.15-0.219c0.08-0.022,0.173,0.033,0.23,0.147
		c0,0.003,0,0.007,0,0.011h0.004c0.005,0.01,0.009,0.02,0.013,0.031c0,0.003,0,0.011-0.001,0.014
		c-0.01,0.03-0.016,0.068-0.016,0.117c0,0.004,0,0.01,0,0.014c0,0.047,0.002,0.098,0.007,0.15c0.001,0.015,0.002,0.026,0.004,0.04
		c0.007,0.056,0.018,0.11,0.029,0.162c0.003,0.014,0.006,0.026,0.01,0.04c0.013,0.05,0.028,0.098,0.046,0.134
		c0.001,0.002,0.001,0.006,0.003,0.009c-0.043-0.004-0.083-0.015-0.122-0.032c-0.009-0.005-0.017-0.008-0.024-0.013
		c-0.031-0.017-0.061-0.036-0.087-0.061c-0.005-0.003-0.011-0.007-0.016-0.013C51.582,70.153,51.552,70.119,51.527,70.078
		L51.527,70.078 M52.432,70.151c-0.077-0.009-0.158-0.059-0.236-0.13c-0.028-0.026-0.056-0.056-0.082-0.09
		c-0.006-0.007-0.013-0.015-0.02-0.023c-0.026-0.038-0.051-0.076-0.074-0.117c-0.002-0.005-0.005-0.008-0.008-0.014
		c-0.05-0.097-0.082-0.202-0.087-0.302c-0.002-0.037-0.002-0.073,0.003-0.108c0,0,0,0.001-0.001,0.003
		c0-0.007,0.001-0.012,0.002-0.018c0.034-0.185,0.291-0.206,0.381-0.167c0.073,0.031,0.233,0.147,0.208,0.331
		c0-0.002-0.001-0.002-0.002-0.004l-0.001,0.002v-0.002c-0.025,0.048-0.049,0.107-0.069,0.167c-0.004,0.014-0.007,0.027-0.011,0.04
		c-0.013,0.049-0.025,0.098-0.033,0.146c-0.001,0.006-0.003,0.012-0.004,0.017h0.002C52.389,69.989,52.393,70.09,52.432,70.151
		 M50.785,69.968c-0.117-0.114-0.185-0.351-0.173-0.583c0.02-0.384,0.32-0.653,0.691-0.64c0.281-0.536,0.734-0.536,1.013-0.407
		c0.499-0.232,0.856-0.99,1.158-1.19c0.005-0.112-0.012-0.251-0.018-0.398c0.259,0.097,0.513,0.147,0.699,0.147
		c-0.25-0.618-0.072-0.809,0.124-1.103c0.619,0.113,1.148-0.256,1.442-0.61c0.65-0.414,1.046-1.24,1.132-1.888
		c1.402-0.3,3.328,0.045,4.636,0.238c0.01,0.001,0.02,0.003,0.03,0.003c0.122,0.019,0.246,0.038,0.356,0.051
		c1.5,0.198,2.231-0.425,2.231-1.062c0-0.374-0.359-0.826-0.871-0.826c-0.51,0-0.918,0.444-0.767,1.071
		c-0.94,0-0.987-0.685-0.632-0.978c0.219-0.041,0.458-0.138,0.68-0.34l0.179-0.162c0.37-0.019,0.658-0.143,0.898-0.266
		c0.79,0.146,1.444,0.52,1.444,1.42c0,1.303-1.399,1.835-2.015,1.835c-0.241,0-0.755-0.037-1.3-0.335
		c0.407,0.26,0.702,0.841,0.798,1.34c0.494,0.244,0.981,0.289,1.297,0.318c0.769-0.242,1.174,0.63,1.233,1.06
		c-0.105-0.15-0.477-0.29-0.688-0.277c0.549,0.304,0.785,0.924,0.755,1.523c-0.09-0.197-0.31-0.453-0.51-0.431
		c0.476,0.57,0.256,1.431-0.127,1.688c0.006-0.22-0.032-0.485-0.113-0.674c0.083,0.435-0.375,1.298-0.874,1.103
		c-0.448-0.208-0.832-0.265-1.043-0.28l-0.013-0.002c-0.015-0.002-0.024,0-0.036-0.002c-0.025-0.001-0.05-0.003-0.073-0.001
		c-0.07,0.001-0.092,0.012-0.092,0.012s-0.116,0.045-0.162,0.176c0,0,0,0.002,0,0.002s-0.001,0.002-0.002,0.003
		c0-0.002,0-0.003-0.002-0.005c-0.06-0.087-0.082-0.189-0.078-0.296c0.001-0.041,0.008-0.083,0.016-0.125
		c0.002-0.009,0.006-0.02,0.007-0.03c0.009-0.029,0.017-0.06,0.025-0.088c0.005-0.012,0.009-0.024,0.014-0.036
		c0.009-0.027,0.021-0.052,0.032-0.077c0.004-0.01,0.009-0.02,0.013-0.03c0.018-0.033,0.033-0.063,0.05-0.088
		c-0.015-0.05-0.014-0.102-0.007-0.155c0.035-0.264,0.313-0.531,0.489-0.531c0.323,0,0.382,0.477,0.895,0.477
		c0.105,0,0.172-0.027,0.244-0.432c0.055-0.299,0.021-0.432-0.075-0.693c-0.203-0.258-0.236-0.561-0.245-0.81
		c-0.378,0.089-1.022,0.096-1.571,0.055c-0.056-0.004-0.11-0.01-0.166-0.015c-0.045-0.005-0.092-0.009-0.135-0.016
		c-0.046-0.005-0.092-0.01-0.135-0.015c-0.048-0.008-0.094-0.016-0.138-0.023c-0.033-0.006-0.067-0.012-0.098-0.018
		c-0.065-0.013-0.125-0.028-0.173-0.043c-0.002-0.002-0.007-0.002-0.009-0.004c-0.205-0.323-0.415-1.22-0.88-1.612
		c-0.632,0.79-0.284,1.502,0.212,2.163c0.135,0.041,0.372,0.53-0.173,0.713c-0.002-0.023-0.013-0.042-0.029-0.057
		c-0.034-0.029-0.094-0.042-0.162-0.036c-0.172,0.013-0.402,0.133-0.419,0.374c-0.083-0.017-0.162-0.021-0.237-0.007
		c-0.142,0.022-0.268,0.102-0.382,0.234c-0.006,0.009-0.015,0.012-0.021,0.019c-0.022,0.029-0.042,0.07-0.063,0.103
		c-0.036,0.053-0.072,0.101-0.105,0.167c-0.05,0.059-0.114,0.11-0.182,0.158l-0.014-0.002c-0.128-0.017-0.261-0.019-0.395-0.026
		c-0.575-0.038-0.892,0.074-1.167,0.24c-0.414-0.253-0.95-0.24-1.385-0.133c0.003-0.023,0.008-0.049,0.013-0.073
		c0.003-0.031,0.009-0.062,0.016-0.094c0.005-0.017,0.012-0.036,0.017-0.052c0.009-0.039,0.02-0.075,0.034-0.112
		c0.005-0.014,0.013-0.03,0.018-0.046c0.017-0.039,0.032-0.08,0.051-0.119c0.006-0.015,0.014-0.029,0.023-0.044
		c0.019-0.04,0.039-0.077,0.061-0.114c0.01-0.014,0.019-0.029,0.029-0.042c0.022-0.034,0.044-0.067,0.067-0.098
		c0.012-0.015,0.026-0.025,0.038-0.041c0.023-0.024,0.045-0.05,0.069-0.072c0.015-0.013,0.032-0.022,0.049-0.034
		c0.021-0.013,0.042-0.031,0.063-0.041c0.03-0.015,0.061-0.019,0.091-0.021c0.007,0,0.016-0.004,0.023-0.004
		c0.313,0,0.886,0.208,1.003,0.196c0.004,0,0.008,0,0.013,0c0.119-0.014,0.339-0.047,0.427-0.188
		c0.011-0.015,0.029-0.038,0.042-0.057c0.019-0.029,0.036-0.053,0.06-0.085c0.001-0.002,0.004-0.005,0.007-0.008
		c0.104-0.134,0.245-0.288,0.399-0.433c0.262-0.242,0.563-0.451,0.811-0.458l-0.002,0h0.002c-0.849-0.025-1-0.732-1-1.117
		c0-0.505,0.619-1.106,0.967-1.234c-0.104-0.027-0.2-0.041-0.29-0.042c-0.633-0.011-0.977,0.539-1.155,0.846
		c-0.021,0.039-0.052,0.074-0.091,0.111c-0.114,0.11-0.298,0.22-0.53,0.337c-0.309,0.156-0.7,0.324-1.124,0.528
		c-0.007-0.003-0.012-0.008-0.017-0.012v0l0,0c-0.009,0.161-0.033,0.316-0.085,0.453c-0.05,0.137-0.125,0.253-0.231,0.331
		c-0.028-0.077-0.132-0.325-0.286-0.417h-0.001c0.254,0.699-0.217,1.448-0.606,1.675c0.078-0.117,0.084-0.497-0.045-0.705
		c-0.015,0.131-0.048,0.25-0.088,0.364c-0.014,0.037-0.03,0.07-0.044,0.107c-0.033,0.073-0.068,0.147-0.108,0.212
		c-0.281,0.472-0.723,0.758-0.96,0.867c-0.053,0.082-0.108,0.156-0.167,0.221c-0.004,0.005-0.009,0.01-0.014,0.015
		c-0.05,0.054-0.1,0.101-0.15,0.141c-0.008,0.006-0.015,0.013-0.022,0.018c-0.052,0.038-0.104,0.068-0.151,0.09
		c-0.008,0.003-0.017,0.006-0.024,0.009c-0.05,0.017-0.099,0.03-0.143,0.03h-0.002c0.125-0.359-0.141-0.621-0.377-0.68
		c-0.207-0.053-0.466,0.092-0.531,0.414c-0.227-0.271-0.492-0.101-0.502,0.151c-0.027-0.058-0.213-0.154-0.332-0.103
		C50.787,69.432,50.695,69.649,50.785,69.968 M51.584,60.727c-0.279,0.03-0.428-0.157-0.517-0.343
		c0.057-0.026,0.096-0.046,0.129-0.065c0.175-0.069,0.346-0.105,0.429-0.011l0.49,0.661c0,0-0.088,0.575,0.474,0.833
		c0.162,0.142,0.386,0.383,0.463,0.672c0.125,0.471,0.545,0.659,0.79,0.654h0.001l0,0c0.327,0,0.68-0.178,0.806-0.649
		c0.077-0.292,0.287-0.536,0.45-0.678c0.587-0.252,0.498-0.842,0.498-0.842l0.549-0.686c0.042-0.03,0.096-0.017,0.156,0.019
		c0.165,0.213,0.295,0.294,0.476,0.405c-0.107,0.172-0.359,0.185-0.633,0.119c0.016,0.119,0.046,0.258,0.082,0.402
		c0.002,0.006,0.002,0.011,0.004,0.017c0.029,0.107,0.061,0.216,0.096,0.326c0.014,0.044,0.029,0.088,0.046,0.131
		c0.014,0.041,0.028,0.08,0.046,0.118c0.031,0.08,0.064,0.155,0.1,0.225c0.003,0.004,0.005,0.011,0.007,0.016
		c0.001,0.001,0.002,0.001,0.002,0.003c0.006,0.013,0.013,0.021,0.018,0.031c0.025,0.044,0.05,0.087,0.074,0.124
		c0.026,0.035,0.052,0.065,0.079,0.094c0.006,0.006,0.011,0.016,0.016,0.021c-0.088,0.072-0.32,0.072-0.584-0.03
		c0.004,0.002,0.006,0.005,0.008,0.008c0-0.001-0.001-0.001-0.003-0.002c0.074,0.064,0.133,0.138,0.182,0.217
		c0.016,0.029,0.023,0.061,0.037,0.089c0.021,0.049,0.046,0.098,0.062,0.152c0.02,0.069,0.031,0.143,0.04,0.216
		c0.003,0.016,0.005,0.03,0.006,0.044c0.006,0.086,0.008,0.173,0.003,0.263v0.003c-0.027,0.458-0.207,0.923-0.398,1.157
		c0.016-0.419-0.076-1.06-0.558-1.268c0.615,0.844-0.068,2.191-0.966,2.36c0.14-0.238,0.526-1.028-0.102-1.82
		c0.872,1.523-1.139,1.704-0.627,2.887c-0.159-0.056-0.298-0.121-0.423-0.192c-0.01-0.007-0.021-0.015-0.031-0.02
		c-0.404-1.213,0.25-2.478,0.25-2.478s-0.965,1.06-0.545,2.261c-0.015-0.013-0.028-0.027-0.042-0.04
		c-0.06-0.057-0.114-0.117-0.16-0.181c-0.025-0.031-0.047-0.068-0.068-0.102c-0.034-0.052-0.061-0.105-0.085-0.159
		c-0.019-0.043-0.039-0.088-0.052-0.131c-0.185-0.579,0.038-1.198,0.288-1.518c-0.496,0.157-0.664,0.779-0.646,1.364
		c-1.076-1.305-0.216-2.171,0.162-2.521c-0.391,0.043-0.796,0.571-1.006,0.996c-0.475-0.817-0.274-1.504,0.236-1.896
		c-0.34,0.132-0.649,0.115-0.743,0.016c0,0,0.511-0.62,0.596-1.025c0,0,0.006-0.021,0.035-0.21L51.584,60.727z M52.324,65.926
		c-0.064,0.136-0.127,0.264-0.431-0.02c-0.303-0.282-0.297-0.296-0.656-0.467c-0.233-0.113-0.365-0.212-0.565-0.49
		c0.154,0.047,0.244,0.032,0.416-0.044c-0.262,0-0.662-0.371-0.817-0.695c0.109,0.047,0.218,0.039,0.323,0
		c-0.4-0.263-0.416-0.691-0.535-1.138c-0.67-0.133-0.84-0.663-0.812-1.002c0.262,0.028,0.535-0.026,0.616-0.16
		c0.06-0.099,0.049-0.242,0.01-0.357c0.273,0.035,0.442-0.139,0.481-0.349c0.192,0.098,0.506,0.046,0.596-0.392
		c0.066,0.062,0.116,0.166,0.151,0.281c-0.162,0.303-0.45,0.711-0.631,0.929l0.214,0.228c0.059,0.061,0.13,0.108,0.218,0.139
		c-0.195,0.408-0.132,1.456,0.501,1.999c0.098,0.403,0.302,1.146,0.995,1.389c0.002,0.005,0.005,0.008,0.006,0.013
		C52.371,65.841,52.341,65.891,52.324,65.926 M48.777,61.887c0.082-0.529,0.612-0.473,0.877-0.339
		c0.083,0.085,0.075,0.206,0.008,0.281c-0.041,0.046-0.215,0.084-0.352,0.029C49.18,61.764,48.943,61.779,48.777,61.887
		 M50.052,61.042c0.092,0.09,0.092,0.177,0.047,0.234c-0.093,0.115-0.208,0.13-0.312,0.121c-0.112-0.167-0.389-0.256-0.686-0.172
		C49.344,60.833,49.824,60.89,50.052,61.042 M50.706,60.669c-0.005,0.172-0.15,0.38-0.341,0.313l-0.009-0.041
		c-0.032-0.164-0.335-0.374-0.471-0.403C50.241,60.392,50.578,60.525,50.706,60.669 M53.875,61.913
		c0.1,0.008,0.447,0.033,0.375,0.294c-0.094,0.334-0.38,0.307-0.38,0.307s-0.289,0.028-0.381-0.307
		C53.409,61.925,53.801,61.916,53.875,61.913 M53.87,62.688c0.59,0,0.589-0.837,0.616-0.924l0.07,0.031
		c0.049,0.018,0.173,0.031,0.252,0.021c-0.334,0.297-0.135,0.548-0.5,0.857c-0.006,0.005-0.011,0.01-0.017,0.015
		c-0.135,0.092-0.269,0.143-0.422,0.144c-0.095-0.001-0.203-0.028-0.275-0.048c-0.036-0.012-0.07-0.033-0.105-0.05
		c-0.011-0.009-0.021-0.013-0.032-0.024c-0.26-0.223-0.232-0.608-0.593-0.836c0.132,0.011,0.25,0.001,0.307-0.007l0.058-0.02
		C53.229,61.847,53.282,62.688,53.87,62.688 M51.292,58.833c0.115-0.072,0.475,0.073,0.813,0.331c0.099-0.139,0.1-0.285,0.1-0.285
		c0.027-0.392-0.142-0.581-0.142-0.581s0.291-0.05,0.61,0.174c0.079,0.056,0.225,0.216,0.225,0.216s0.037-0.155-0.033-0.457
		c-0.071-0.307-0.367-0.468-0.494-0.468c0,0,0.235-0.561,0.803-0.106c0.132,0.106,0.386,0.563,0.386,0.563s-0.071-0.474,0.073-0.706
		c0.099-0.156,0.165-0.183,0.165-0.183s-0.014,0.226,0.175,0.456c0.187,0.23,0.462,0.333,0.462,0.333s0.104-0.402,0.427-0.414
		c0.199-0.008,0.306,0.093,0.306,0.093s-0.204,0.297,0.071,0.872c0,0,0.398-0.629,0.755-0.572c0,0-0.2,0.107-0.184,0.613
		l0.014,0.277l0.009,0.087c0.301-0.057,0.59-0.025,0.729,0.087c-0.007,0.093-0.086,0.528-0.199,0.635l-1.128,1.008
		c0,0,0.216,0.444-0.107,0.765c-0.141,0.082-0.576,0.273-0.926-0.241c-0.028-0.04-0.051-0.073-0.073-0.101
		c0.036,0.003,0.171,0.002,0.232-0.137c0.072-0.158,0.291-0.181,0.291-0.181l-0.25-0.141c0,0-0.191,0.228-0.369,0.228h-0.149h-0.005
		h-0.181c-0.177,0-0.364-0.228-0.364-0.228L53.1,60.918c0,0,0.286,0.026,0.363,0.182c0.07,0.14,0.227,0.127,0.227,0.127
		l-0.052,0.077c-0.013,0.018-0.054,0.066-0.069,0.086c-0.367,0.541-0.83,0.3-0.945,0.229c-0.378-0.327-0.139-0.825-0.139-0.825
		L51.76,60.18C51.137,59.643,51.239,58.925,51.292,58.833 M57.514,57.457c0-0.359,0.236-0.911,0.675-0.911s0.675,0.552,0.675,0.911
		v0.861h-1.35V57.457z M62.894,62.221c0.077-0.1,0.202-0.158,0.342-0.158c0.37,0,0.508,0.353,0.508,0.463
		c0,0.338-0.408,0.732-1.427,0.732c-0.125,0-0.257-0.009-0.395-0.027c-0.137-0.018-0.291-0.041-0.451-0.063l-0.061-0.497
		c0.17,0.265,0.565,0.593,1.43,0.358C62.728,62.583,62.806,62.331,62.894,62.221 M62.26,59.982c1.199-0.861,2.551,0.432,2.474,1.082
		c-0.31-0.281-0.794-0.391-1.032-0.391c-0.021,0-0.042,0.002-0.061,0.002c-0.007,0.001-0.014,0.001-0.02,0.002
		c-0.013,0.001-0.026,0.003-0.039,0.004c-0.006,0.001-0.015,0.002-0.022,0.003c-0.01,0.003-0.021,0.004-0.032,0.007
		c-0.009,0.001-0.016,0.004-0.024,0.004c-0.009,0.003-0.019,0.005-0.03,0.009c-0.007,0.001-0.015,0.004-0.023,0.006
		c-0.009,0.003-0.018,0.005-0.025,0.008c-0.009,0.003-0.018,0.005-0.027,0.01c-0.005,0.001-0.009,0.003-0.013,0.004
		c-0.187,0.068-0.352,0.175-0.593,0.214c-0.112,0.018-0.243,0.02-0.399-0.002c-0.026-0.005-0.054-0.01-0.082-0.015l0,0
		c-0.028-0.005-0.057-0.011-0.084-0.018c-0.003-0.001-0.005-0.001-0.007-0.003c-0.027-0.006-0.056-0.013-0.085-0.021
		c-0.003,0-0.007-0.002-0.013-0.004c-0.028-0.008-0.055-0.016-0.083-0.023c-0.008-0.004-0.016-0.007-0.024-0.01
		c-0.027-0.008-0.053-0.016-0.079-0.026c-0.013-0.003-0.025-0.01-0.039-0.015c-0.023-0.008-0.046-0.017-0.07-0.026
		c-0.019-0.008-0.04-0.017-0.062-0.024c-0.018-0.006-0.037-0.016-0.058-0.024c-0.036-0.016-0.074-0.032-0.113-0.05
		c-0.003-0.001-0.006-0.002-0.01-0.003l0,0c-0.007-0.004-0.009-0.004-0.009-0.005c0,0,0,0,0,0c0,0.001,0.005,0.002,0.009,0.005
		c0.003,0.003,0.007,0.008,0.011,0.011c0.006,0.008,0.012,0.015,0.017,0.022c0.008,0.01,0.016,0.021,0.023,0.032
		c0.001,0.001,0.002,0.003,0.003,0.004c0.057,0.081,0.113,0.184,0.192,0.269c0.097,0.105,0.232,0.185,0.445,0.169
		c-0.345,0.311-0.761,0.304-1.048,0.222c-0.114-0.033-0.209-0.071-0.289-0.113c-0.003-0.002-0.006-0.004-0.01-0.005
		c-0.068-0.036-0.126-0.074-0.178-0.114c-0.012-0.007-0.021-0.016-0.031-0.025c-0.042-0.031-0.081-0.064-0.117-0.098
		c-0.107-0.095-0.211-0.188-0.365-0.262c-0.002-0.001-0.002-0.001-0.004-0.002c-0.003-0.003-0.006-0.004-0.009-0.005h0
		c-0.013-0.005-0.025-0.012-0.04-0.018c0-0.001-0.001-0.001-0.002-0.001c-0.005-0.002-0.009-0.004-0.014-0.006
		c-0.012-0.003-0.025-0.008-0.036-0.012c-0.005-0.002-0.012-0.006-0.017-0.007c-0.002-0.002-0.005-0.002-0.006-0.002h-0.001
		c-0.01-0.004-0.02-0.007-0.03-0.01c-0.005-0.002-0.01-0.003-0.014-0.005c-0.006-0.001-0.013-0.003-0.017-0.005
		c-0.018-0.005-0.035-0.01-0.054-0.015c-0.012-0.003-0.028-0.007-0.042-0.01c-0.016-0.003-0.03-0.006-0.046-0.01
		c-0.001,0-0.006,0-0.009-0.001c-0.008-0.001-0.018-0.004-0.027-0.005c-0.013-0.001-0.026-0.004-0.039-0.007h-0.002
		c-0.008-0.001-0.02-0.001-0.027-0.004c-0.02-0.003-0.039-0.004-0.057-0.008c-0.012,0-0.022-0.002-0.034-0.002h-0.002
		c-0.02-0.003-0.037-0.005-0.058-0.008c-0.011,0-0.023-0.001-0.035-0.001c-0.021-0.001-0.041-0.003-0.063-0.005
		c-0.013,0-0.025,0-0.039,0c-0.003,0-0.006,0-0.009-0.002c-0.006,0-0.013,0-0.02,0c-0.015-0.001-0.03-0.001-0.044-0.002h-0.036
		c-0.037,0-0.076-0.003-0.115-0.003h-0.002l0,0c-0.569,0-1.012,0.213-1.012,0.605c0,0.391,0.408,0.559,1.025,0.559h0.002h0.001
		c0.099,0,0.208-0.017,0.321-0.04c0.037-0.009,0.076-0.02,0.114-0.029c0.083-0.023,0.166-0.046,0.253-0.075
		c0.043-0.015,0.086-0.029,0.131-0.044c0.102-0.037,0.206-0.075,0.313-0.117c0.029-0.011,0.057-0.021,0.086-0.033
		c0.142,0.109,0.327,0.22,0.606,0.3c0.051,0.015,0.119,0.03,0.199,0.042c-0.008,0.003-0.016,0.008-0.023,0.01l-0.001-0.002
		c-0.052,0.017-0.101,0.039-0.152,0.057c-0.029,0.011-0.059,0.021-0.087,0.034c-0.055,0.023-0.109,0.051-0.164,0.08
		c-0.025,0.013-0.052,0.026-0.078,0.04c-0.078,0.041-0.157,0.085-0.236,0.128c-0.021,0.011-0.042,0.021-0.062,0.033
		c-0.064,0.034-0.127,0.068-0.194,0.101c-0.026,0.015-0.056,0.025-0.084,0.038c-0.063,0.03-0.125,0.059-0.194,0.086
		c-0.024,0.009-0.05,0.015-0.074,0.023c-0.077,0.029-0.154,0.057-0.241,0.079c-0.007,0.002-0.016,0.003-0.023,0.005
		c-0.218,0.055-0.466,0.089-0.759,0.089c-0.804,0-1.603-0.454-1.603-1.315c0-0.184,0.045-0.361,0.132-0.525
		c0.015-0.026,0.037-0.051,0.055-0.078c0.032-0.052,0.063-0.104,0.106-0.153c0.014-0.015,0.035-0.03,0.05-0.045
		c0.326-0.338,0.876-0.57,1.614-0.583v-0.001c0.009,0,0.019,0.001,0.027,0.001c0.014-0.001,0.027-0.001,0.042-0.001V59.9
		c0.686,0.017,1.042,0.277,1.559,0.277c0.949,0,0.52-0.987,0.276-1.082C61.992,58.69,62.456,59.688,62.26,59.982 M62.069,67.965
		l-0.118-0.959c0.193,0.013,0.389,0.019,0.566,0.019c0.178,0,0.4-0.004,0.617-0.025c0.039,0.19,0.108,0.384,0.241,0.567
		c0.064,0.184,0.077,0.257,0.042,0.457c-0.006,0.042-0.015,0.078-0.022,0.107c-0.051-0.028-0.101-0.073-0.167-0.143
		c-0.12-0.123-0.299-0.309-0.595-0.309C62.414,67.679,62.213,67.812,62.069,67.965 M84.455,63.552
		c-0.577,0.995-1.912,1.587-3.246,1.439c0.636-1.722,0.212-5.095-1.5-5.26c0.092,1.27-1.613,3.134-3.913,3.276
		c-1.038-1.081-2.58-1.551-3.419-1.551c-1.09,0-3.057,1.536-2.803,4.427c-0.371-1.169-2.569-1.529-3.232-1.021
		c1.373,0.882,1.673,8.209-1.127,8.209c-0.712,0-1.432-0.198-2.354-1.246l0,0v-0.001v0.001c0.511,0.052,1.05-0.109,1.182-0.967
		c0.057-0.371-0.024-0.669-0.188-0.906c0.084-0.024,0.168-0.059,0.246-0.11l0.017-0.008l0.564-0.367
		c0.246-0.164,0.433-0.461,0.515-0.814c0.263-0.342,0.263-0.935,0.174-1.397c0.168-1.164-0.536-2.053-1.291-2.053
		c-0.096,0-0.195,0.011-0.294,0.039c-0.263-0.028-0.601-0.067-0.953-0.21c-0.035-0.134-0.083-0.271-0.144-0.408
		c0.134,0.015,0.248,0.019,0.335,0.019c0.802,0,2.376-0.665,2.376-2.196c0-0.479-0.144-0.864-0.434-1.158
		c0.222-0.372-0.038-1.12-0.514-1.48c-0.473-0.354-1.111-0.646-1.863-0.354c-0.056-0.148-0.148-0.34-0.249-0.453
		c-0.342-0.385-0.829-0.471-1.297-0.226l-0.112,0.059l-0.326-2.616l0.022-0.023c-1.117-0.463-3.402-0.633-4.894-0.016l0.041,0.043
		l-0.228,1.808c-0.154,0.104-0.231,0.254-0.231,0.254c-0.065-0.533,0.19-0.599,0.19-0.599c-0.685-0.491-1.153,0.062-1.153,0.062
		c-0.499-0.337-0.383-0.759-0.383-0.759c-0.572,0.072-0.646,0.475-0.646,0.475c-0.979-0.706-1.267,0.465-1.267,0.465
		s0.119,0.056,0.263,0.132c-0.175-0.047-0.386-0.043-0.628,0.096c0,0,0.381,0.335,0.327,0.738l-0.044-0.041
		c-0.127-0.116-0.38-0.246-0.38-0.246s-0.621-0.316-0.612,0.195c0.01,0.518,0.141,1.138,0.141,1.138
		c-0.107,0.096-0.178,0.144-0.5,0.293c-0.129-0.053-0.272-0.086-0.422-0.086c-0.149,0-0.364,0.022-0.504,0.079
		c-0.14,0.043-0.283,0.168-0.451,0.346c0.125,0.046,0.187,0.092,0.2,0.134c-0.322,0.057-0.531,0.2-0.621,0.345
		c-0.352,0.367-0.447,1.019-0.27,1.45c0.086-0.121,0.242-0.279,0.366-0.32c0.01,0.277,0.092,0.553,0.26,0.79
		c0.156,0.221,0.375,0.354,0.623,0.388c0.099,0.569,0.349,1.465,0.602,1.785c0.221,0.302,0.389,0.446,0.692,0.591
		c0.275,0.131,0.278,0.132,0.485,0.329l0.087,0.083c0.129,0.12,0.304,0.258,0.505,0.258c0.222,0,0.34-0.146,0.402-0.256
		c0.136,0.189,0.317,0.341,0.513,0.457c-0.002,0.126,0.005,0.241,0.013,0.338c0,0.013,0.001,0.028,0.004,0.043
		c-0.109,0.108-0.211,0.242-0.323,0.39c-0.157,0.206-0.331,0.435-0.51,0.566c-0.09-0.024-0.186-0.038-0.278-0.038
		c-0.222,0-0.609,0.07-0.907,0.496c-0.466,0.085-0.816,0.472-0.839,0.967c-0.017,0.331,0.083,0.651,0.259,0.84
		c0.053,0.056,0.11,0.099,0.176,0.132c0.176,0.251,0.473,0.422,0.769,0.437c0.003,0.013,0.005,0.026,0.009,0.039
		c0.229,0.809,0.938,1.02,1.617,1.012c-0.317,1.137,0.309,1.955,1.005,2.155c0.235-0.838,1.277-1.987,2.173-2.146
		c-0.472,0.501-1.095,1.31-1.152,2.177c3.026-0.136,5.339-1.155,6.859-2.396c0.142,0.166,0.267,0.309,0.38,0.436
		c1.14,1.421,2.084,1.546,2.88,1.546l0.179-0.003c0.656,0,1.276-0.108,1.795-0.311l0.186-0.072l-0.108,0.167
		c-0.631,0.965-0.728,4.04,0.645,5.474l0.104,0.107h-0.15c-1.676,0-4.621-2.135-4.81-4.361c-0.345,0.401-0.765,2.028-0.751,3.024
		l0.003,0.188l-0.115-0.149c-1.457-1.871-0.971-4.092-0.443-5.162c-3.123,2.198-10.244,4.006-9.494,0.001
		c-0.573,0.429-1.145,1.336-1.145,2.194c0,1.982,2.976,2.71,8.846,0.375c-1.085,0.847-2.738,1.812-4.566,2.132
		c0.528,1.056,0.661,3.13,0.441,4.265c-0.158-0.629-0.512-3.283-1.653-4.157c-0.881,0.004-1.781-0.17-2.66-0.598L51.507,76.7
		c0.001,0.002,0.001,0.002,0.001,0.005c-0.001-0.002-0.004-0.002-0.006-0.002c0.001,0.002,0.002,0.004,0.003,0.007
		c-0.677,1.285-2.297,2.189-3.609,2.189c1.36-1.423,1.315-4.54,0.652-5.553c0.56,0.219,1.2,0.315,1.82,0.315l0.182,0.002
		c0.104,0,0.212-0.002,0.322-0.01c0.086-0.276,0.203-0.539,0.362-0.778c-0.336,0.066-0.631,0.063-0.866,0.063
		c-2.878,0-2.757-6.685-0.696-7.011c-0.434-1.085-2.66-1.844-3.096,1.25c0.255-2.893-0.923-5.72-3.183-5.72
		c-0.836,0-2.379,0.47-3.417,1.551c-2.301-0.143-4.003-2.006-3.914-3.276c-1.71,0.165-2.135,3.538-1.499,5.26
		c-1.336,0.148-2.668-0.444-3.246-1.439c-0.985,2.339,1.294,5.53,3.63,5.53c4.477,0,3.592-4.24,5.979-4.24
		c1.05,0,3.073,1.613,3.858,4.289c-2.822-1.845-6.075,0.535-6.301,2.119c4.78-1.576,8.342,1.597,8.977,2.203
		c1.273,1.21,0.682,5.321-1.545,5.815c2.436,1.247,4.789,0.07,6.117-1.594c0.341,0.318,0.817,0.539,1.331,0.597
		c0.436,0.379,0.765,0.933,0.773,2.002c-0.61,0.193-1.14,0.818-0.776,1.565c0.382,0.859,1.829,1.594,2.559,1.593
		c1.834-0.003,2.412-0.603,3.94-1.411c1.699-0.897,3.632-0.969,4.723-0.765c-0.03-0.022-0.044-0.032-0.051-0.037
		c-0.006-0.006-0.018-0.016-0.042-0.037c-1.501-1.391-1.407-4-1.307-4.473c0.426,1.36,3.256,4.318,6.676,2.559
		c-2.233-0.495-2.681-4.488-1.654-5.909c0.597-0.827,2.069-2.04,3.831-1.86c0.617,0.064,1.242,0.752,0.948,1.603
		c0.751-0.294,2.322-1.373,2.322-2.908c0-1.536-2.027-3.137-3.729-2.354c0.785-2.678,2.616-2.71,3.662-2.71
		c2.057,0,1.109,3.952,5.586,3.952C83.16,69.082,85.439,65.891,84.455,63.552"/>
	<path fill="#16202C" d="M54.829,60.003l0.446-0.194h-0.934v0.625l0.088-0.106C54.429,60.329,54.829,60.375,54.829,60.003"/>
	<path fill="#16202C" d="M53.314,60.329l0.089,0.107v-0.625h-0.934l0.446,0.193C52.915,60.374,53.314,60.329,53.314,60.329"/>
	<path fill="#16202C" d="M51.387,59.03c0.034,0.844,0.456,0.496,0.649,0.728C52.081,59.554,52.014,59.023,51.387,59.03"/>
	<path fill="#16202C" d="M56.453,59.25c-0.592-0.16-0.781,0.326-0.788,0.532C55.941,59.542,56.276,59.937,56.453,59.25"/>
</g>
<polygon fill="#16202C" points="110.595,86.779 124.435,86.779 124.435,82.249 116.479,82.249 116.479,65.289 110.595,65.289 "/>
<g>
	<path fill="#16202C" d="M131.383,77.693c0-2.777,0.479-5.493,3.003-5.493c2.701,0,3,2.716,3,5.493c0,2.747-0.299,5.463-3,5.463
		C131.861,83.156,131.383,80.44,131.383,77.693 M125.618,77.693c0,5.251,2.793,9.509,8.768,9.509c5.973,0,8.764-4.258,8.764-9.509
		c0-5.281-2.791-9.536-8.764-9.536C128.411,68.157,125.618,72.412,125.618,77.693"/>
	<path fill="#16202C" d="M155.537,86.779h5.642V73.922c0-2.143,0-5.767-4.47-5.767c-2.466,0-3.935,1.177-5.946,2.865v-2.439h-5.646
		v18.199h5.646V74.643c0.809-0.755,1.949-1.839,3.031-1.839c1.382,0,1.743,1.235,1.743,2.777V86.779z"/>
	<path fill="#16202C" d="M174.586,81.588c-0.75,0.693-1.442,1.389-2.669,1.389c-2.525,0-2.706-3.413-2.706-5.072
		c0-2.265,0.118-5.521,2.763-5.521c1.143,0,1.831,0.631,2.612,1.475V81.588z M180.232,63.328h-5.646v7.094
		c-1.442-1.238-2.612-2.265-4.833-2.265c-5.314,0-6.307,5.191-6.307,9.264c0,4.587,0.992,9.781,6.155,9.781
		c1.413,0,3.002-0.333,4.984-2.354v1.931h5.646V63.328z"/>
	<path fill="#16202C" d="M187.963,77.693c0-2.777,0.478-5.493,3-5.493c2.706,0,3.005,2.716,3.005,5.493
		c0,2.747-0.299,5.463-3.005,5.463C188.44,83.156,187.963,80.44,187.963,77.693 M182.2,77.693c0,5.251,2.785,9.509,8.763,9.509
		c5.974,0,8.768-4.258,8.768-9.509c0-5.281-2.794-9.536-8.768-9.536C184.985,68.157,182.2,72.412,182.2,77.693"/>
	<path fill="#16202C" d="M212.116,86.779h5.644V73.922c0-2.143,0-5.767-4.47-5.767c-2.466,0-3.933,1.177-5.948,2.865v-2.439h-5.643
		v18.199h5.643V74.643c0.813-0.755,1.952-1.839,3.032-1.839c1.381,0,1.742,1.235,1.742,2.777V86.779z"/>
	<path fill="#16202C" d="M109.429,106.701c0.339,1.197,1.642,3.42,5.16,3.42c4.568,0,5.492-3.013,5.492-4.53
		c0-2.784-1.957-3.757-2.949-4.19l-2.882-1.265c-1.036-0.454-2.122-0.949-2.122-2.536c0-1.467,0.839-2.604,2.819-2.604
		c1.145,0,2.499,0.435,2.882,1.95l2.025-0.682c-0.766-2.146-2.634-2.942-4.907-2.942c-2.298,0-5.022,1.269-5.022,4.413
		c0,1.678,0.876,2.83,2.386,3.535l3.873,1.808c0.586,0.274,1.689,0.819,1.689,2.56c0,1.358-1.084,2.808-3.107,2.808
		c-2.139,0-3.039-1.359-3.332-2.488L109.429,106.701z"/>
	<path fill="#16202C" d="M122.974,97.465h-2.002v1.494h2.002v7.629c0,1.495,0.498,3.467,3.357,3.467
		c0.339,0,1.128-0.096,1.871-0.391v-1.581c-0.701,0.272-1.041,0.385-1.67,0.385c-1.465,0-1.576-1.021-1.576-2.132v-7.377h3.129
		v-1.494h-3.129V93.32l-1.982,0.84V97.465z"/>
	<path fill="#16202C" d="M134.11,97.717c2.815,0,3.531,2.762,3.531,5.342c0,2.624-0.716,5.409-3.531,5.409
		c-2.816,0-3.537-2.785-3.537-5.409C130.573,100.479,131.294,97.717,134.11,97.717 M134.11,110.052c4.074,0,5.609-3.509,5.609-6.975
		c0-2.692-0.88-6.946-5.609-6.946c-4.078,0-5.609,3.508-5.609,6.946C128.501,105.797,129.383,110.052,134.11,110.052"/>
	<path fill="#16202C" d="M150.874,99.639c-0.924-2.559-2.342-3.508-4.368-3.508c-4.728,0-5.606,4.254-5.606,6.946
		c0,2.991,0.879,6.972,5.27,6.972c2.928,0,3.965-1.581,4.773-3.461l-1.738-0.569c-0.537,1.564-1.549,2.449-3.035,2.449
		c-2.479,0-3.198-2.718-3.198-5.409c0-2.581,0.72-5.346,3.535-5.346c1.892,0,2.434,1.926,2.591,2.467L150.874,99.639z"/>
</g>
<polygon fill="#16202C" points="152.376,92.191 152.376,109.777 154.351,109.777 154.351,102.898 154.397,102.898 159.827,109.777 
	162.392,109.777 156.493,102.579 162.009,96.404 159.487,96.404 154.351,102.355 154.351,92.191 "/>
<polygon fill="#16202C" points="168.948,109.777 178.812,109.777 178.812,108.104 171.016,108.104 171.016,102.27 178.204,102.27 
	178.204,100.592 171.016,100.592 171.016,95.338 178.589,95.338 178.589,93.662 168.948,93.662 "/>
<g>
	<path fill="#16202C" d="M109.429,106.701c0.339,1.197,1.642,3.42,5.16,3.42c4.568,0,5.492-3.013,5.492-4.53
		c0-2.784-1.957-3.757-2.949-4.19l-2.882-1.265c-1.036-0.454-2.122-0.949-2.122-2.536c0-1.467,0.839-2.604,2.819-2.604
		c1.145,0,2.499,0.435,2.882,1.95l2.025-0.682c-0.766-2.146-2.634-2.942-4.907-2.942c-2.298,0-5.022,1.269-5.022,4.413
		c0,1.678,0.876,2.83,2.386,3.535l3.873,1.808c0.586,0.274,1.689,0.819,1.689,2.56c0,1.358-1.084,2.808-3.107,2.808
		c-2.139,0-3.039-1.359-3.332-2.488L109.429,106.701z"/>
	<path fill="#16202C" d="M122.974,97.465h-2.002v1.494h2.002v7.629c0,1.495,0.498,3.467,3.357,3.467
		c0.339,0,1.128-0.096,1.871-0.391v-1.581c-0.701,0.272-1.041,0.385-1.67,0.385c-1.465,0-1.576-1.021-1.576-2.132v-7.377h3.129
		v-1.494h-3.129V93.32l-1.982,0.84V97.465z"/>
	<path fill="#16202C" d="M134.11,97.717c2.815,0,3.531,2.762,3.531,5.342c0,2.624-0.716,5.409-3.531,5.409
		c-2.816,0-3.537-2.785-3.537-5.409C130.573,100.479,131.294,97.717,134.11,97.717 M134.11,110.052c4.074,0,5.609-3.509,5.609-6.975
		c0-2.692-0.88-6.946-5.609-6.946c-4.078,0-5.609,3.508-5.609,6.946C128.501,105.797,129.383,110.052,134.11,110.052"/>
	<path fill="#16202C" d="M150.874,99.639c-0.924-2.559-2.342-3.508-4.368-3.508c-4.728,0-5.606,4.254-5.606,6.946
		c0,2.991,0.879,6.972,5.27,6.972c2.928,0,3.965-1.581,4.773-3.461l-1.738-0.569c-0.537,1.564-1.549,2.449-3.035,2.449
		c-2.479,0-3.198-2.718-3.198-5.409c0-2.581,0.72-5.346,3.535-5.346c1.892,0,2.434,1.926,2.591,2.467L150.874,99.639z"/>
</g>
<polygon fill="#16202C" points="152.376,92.191 152.376,109.777 154.351,109.777 154.351,102.898 154.397,102.898 159.827,109.777 
	162.392,109.777 156.493,102.579 162.009,96.404 159.487,96.404 154.351,102.355 154.351,92.191 "/>
<polygon fill="#16202C" points="168.948,109.777 178.812,109.777 178.812,108.104 171.016,108.104 171.016,102.27 178.204,102.27 
	178.204,100.592 171.016,100.592 171.016,95.338 178.589,95.338 178.589,93.662 168.948,93.662 "/>
<g>
	<path fill="#16202C" d="M184.49,102.695l-4.435,7.082h2.248l3.132-4.998c0.224-0.343,0.358-0.656,0.431-0.819h0.042
		c0.065,0.204,0.225,0.546,0.383,0.819l2.906,4.998h2.366l-4.352-7.127l4.013-6.247h-2.162l-2.458,3.958
		c-0.225,0.365-0.472,0.836-0.649,1.224h-0.047c-0.179-0.388-0.428-0.858-0.656-1.224l-2.339-3.958h-2.316L184.49,102.695z"/>
	<path fill="#16202C" d="M201.952,99.639c-0.926-2.559-2.34-3.508-4.371-3.508c-4.726,0-5.605,4.254-5.605,6.946
		c0,2.991,0.88,6.972,5.272,6.972c2.928,0,3.962-1.581,4.771-3.461l-1.732-0.569c-0.538,1.564-1.553,2.449-3.039,2.449
		c-2.483,0-3.196-2.718-3.196-5.409c0-2.581,0.713-5.346,3.529-5.346c1.896,0,2.434,1.926,2.595,2.467L201.952,99.639z"/>
	<path fill="#16202C" d="M203.448,109.777h1.982v-9.529c0.809-0.946,2.004-2.311,3.848-2.311c1.648,0,1.961,1.344,1.961,2.696v9.144
		h1.984v-9.871c0.021-2.529-1.242-3.781-3.285-3.781c-2.03,0-3.424,1.477-4.508,2.447v-6.381h-1.982V109.777z"/>
	<path fill="#16202C" d="M222.783,103.031v3.012c-1.825,2.084-2.909,2.289-3.72,2.289c-1.644,0-2.229-1.16-2.229-2.376
		c0-2.018,1.667-2.925,4.504-2.925H222.783z M217.2,100c0.581-1.449,1.347-2.375,2.99-2.375c2.593,0,2.593,2.146,2.593,3.058v0.858
		h-1.915c-3.668,0-6.01,1.536-6.01,4.596c0,1.736,0.967,3.779,3.713,3.779c1.576,0,2.879-0.702,4.166-2.4h0.046v2.262h2.093
		c-0.11-0.744-0.11-1.266-0.11-1.559v-7.042c0-2.356-0.519-5.046-4.461-5.046c-3.218,0-4.211,1.743-4.819,3.35L217.2,100z"/>
	<path fill="#16202C" d="M226.556,109.777h1.986v-9.529c0.807-0.946,1.998-2.311,3.849-2.311c1.642,0,1.955,1.344,1.955,2.696v9.144
		h1.983v-9.871c0.023-2.529-1.24-3.781-3.288-3.781c-2.024,0-3.423,1.477-4.499,2.447v-2.168h-1.986V109.777z"/>
	<path fill="#16202C" d="M244.474,108.811c1.805,0.423,2.138,1.016,2.138,1.872c0,1.222-1.214,2.177-3.444,2.177
		c-1.598,0-3.852-0.43-3.852-2.108c0-1.152,0.857-1.968,1.988-2.694L244.474,108.811z M239.7,100.294
		c0-1.855,1.287-2.806,3.015-2.806c1.734,0,3.017,0.95,3.017,2.806c0,1.976-1.35,2.963-3.017,2.963
		C241.054,103.257,239.7,102.27,239.7,100.294 M248.937,96.404h-4.076c-0.588-0.161-1.265-0.279-2.209-0.279
		c-3.244,0-4.841,1.975-4.841,4.285c0,2.305,1.687,3.44,2.54,3.756c-0.693,0.52-1.324,0.996-1.324,1.969
		c0,0.881,0.605,1.176,0.923,1.336c-1.397,0.863-2.522,1.763-2.522,3.529c0,2.447,2.613,3.352,5.403,3.352
		c2.699,0,5.764-0.948,5.764-3.801c0-2.4-1.802-3.056-3.781-3.51l-2.161-0.498c-1.556-0.363-1.735-0.543-1.735-1.02
		c0-0.408,0.202-0.639,0.653-1.019c0.248,0.07,0.563,0.114,1.035,0.114c3.783,0,5.023-2.264,5.023-4.168
		c0-1.219-0.316-1.947-1.078-2.693h2.387V96.404z"/>
	<path fill="#16202C" d="M260,103.6v-0.998c0-3.143-1.372-6.477-5.2-6.477c-4.73,0-5.609,4.26-5.609,6.952
		c0,2.72,0.879,6.978,5.609,6.978c2.429,0,4.076-1.273,4.929-3.329l-1.733-0.614c-0.202,0.726-1.035,2.357-3.195,2.357
		c-1.784,0-3.445-1.271-3.533-4.869H260z M251.267,102.104c0.266-2.739,1.389-4.392,3.465-4.392c2.113,0,3.196,1.995,3.196,4.392
		H251.267z"/>
</g>
</svg>
